<svg width="96" height="96" viewBox="0 0 96 96" fill="none" xmlns="http://www.w3.org/2000/svg">
<path d="M32.6388 0C33.6992 0 34.5588 0.859622 34.5588 1.92C34.5588 2.98043 33.6992 3.84 32.6388 3.84C31.5784 3.84 30.7188 2.98043 30.7188 1.92C30.7188 0.859622 31.5784 0 32.6388 0Z" fill="white"/>
<path d="M40.3184 0C41.3789 0 42.2384 0.859622 42.2384 1.92C42.2384 2.98043 41.3789 3.84 40.3184 3.84C39.2581 3.84 38.3984 2.98043 38.3984 1.92C38.3984 0.859622 39.2581 0 40.3184 0Z" fill="white"/>
<path d="M47.9981 0C49.0586 0 49.9181 0.859622 49.9181 1.92C49.9181 2.98043 49.0586 3.84 47.9981 3.84C46.9377 3.84 46.0781 2.98043 46.0781 1.92C46.0781 0.859622 46.9377 0 47.9981 0Z" fill="white"/>
<path d="M51.838 0C52.8984 0 53.758 0.859622 53.758 1.92C53.758 2.98043 52.8984 3.84 51.838 3.84C50.7776 3.84 49.918 2.98043 49.918 1.92C49.918 0.859622 50.7776 0 51.838 0Z" fill="white"/>
<path d="M55.6817 0C56.7422 0 57.6017 0.859622 57.6017 1.92C57.6017 2.98043 56.7422 3.84 55.6817 3.84C54.6213 3.84 53.7617 2.98043 53.7617 1.92C53.7617 0.859622 54.6213 0 55.6817 0Z" fill="white"/>
<path d="M32.6388 3.83984C33.6992 3.83984 34.5588 4.69947 34.5588 5.75984C34.5588 6.82028 33.6992 7.67984 32.6388 7.67984C31.5784 7.67984 30.7188 6.82028 30.7188 5.75984C30.7188 4.69947 31.5784 3.83984 32.6388 3.83984Z" fill="white"/>
<path d="M40.3184 3.83984C41.3789 3.83984 42.2384 4.69947 42.2384 5.75984C42.2384 6.82028 41.3789 7.67984 40.3184 7.67984C39.2581 7.67984 38.3984 6.82028 38.3984 5.75984C38.3984 4.69947 39.2581 3.83984 40.3184 3.83984Z" fill="white"/>
<path d="M44.1583 3.83984C45.2187 3.83984 46.0783 4.69947 46.0783 5.75984C46.0783 6.82028 45.2187 7.67984 44.1583 7.67984C43.0979 7.67984 42.2383 6.82028 42.2383 5.75984C42.2383 4.69947 43.0979 3.83984 44.1583 3.83984Z" fill="white"/>
<path d="M47.9981 3.83984C49.0586 3.83984 49.9181 4.69947 49.9181 5.75984C49.9181 6.82028 49.0586 7.67984 47.9981 7.67984C46.9377 7.67984 46.0781 6.82028 46.0781 5.75984C46.0781 4.69947 46.9377 3.83984 47.9981 3.83984Z" fill="white"/>
<path d="M51.838 3.83984C52.8984 3.83984 53.758 4.69947 53.758 5.75984C53.758 6.82028 52.8984 7.67984 51.838 7.67984C50.7776 7.67984 49.918 6.82028 49.918 5.75984C49.918 4.69947 50.7776 3.83984 51.838 3.83984Z" fill="white"/>
<path d="M63.3614 3.83984C64.4218 3.83984 65.2814 4.69947 65.2814 5.75984C65.2814 6.82028 64.4218 7.67984 63.3614 7.67984C62.301 7.67984 61.4414 6.82028 61.4414 5.75984C61.4414 4.69947 62.301 3.83984 63.3614 3.83984Z" fill="white"/>
<path d="M32.6388 7.67969C33.6992 7.67969 34.5588 8.53931 34.5588 9.59969C34.5588 10.6601 33.6992 11.5197 32.6388 11.5197C31.5784 11.5197 30.7188 10.6601 30.7188 9.59969C30.7188 8.53931 31.5784 7.67969 32.6388 7.67969Z" fill="white"/>
<path d="M36.4786 7.67969C37.539 7.67969 38.3986 8.53931 38.3986 9.59969C38.3986 10.6601 37.539 11.5197 36.4786 11.5197C35.4182 11.5197 34.5586 10.6601 34.5586 9.59969C34.5586 8.53931 35.4182 7.67969 36.4786 7.67969Z" fill="white"/>
<path d="M44.1583 7.67969C45.2187 7.67969 46.0783 8.53931 46.0783 9.59969C46.0783 10.6601 45.2187 11.5197 44.1583 11.5197C43.0979 11.5197 42.2383 10.6601 42.2383 9.59969C42.2383 8.53931 43.0979 7.67969 44.1583 7.67969Z" fill="white"/>
<path d="M47.9981 7.67969C49.0586 7.67969 49.9181 8.53931 49.9181 9.59969C49.9181 10.6601 49.0586 11.5197 47.9981 11.5197C46.9377 11.5197 46.0781 10.6601 46.0781 9.59969C46.0781 8.53931 46.9377 7.67969 47.9981 7.67969Z" fill="white"/>
<path d="M51.838 7.67969C52.8984 7.67969 53.758 8.53931 53.758 9.59969C53.758 10.6601 52.8984 11.5197 51.838 11.5197C50.7776 11.5197 49.918 10.6601 49.918 9.59969C49.918 8.53931 50.7776 7.67969 51.838 7.67969Z" fill="white"/>
<path d="M55.6817 7.67969C56.7422 7.67969 57.6017 8.53931 57.6017 9.59969C57.6017 10.6601 56.7422 11.5197 55.6817 11.5197C54.6213 11.5197 53.7617 10.6601 53.7617 9.59969C53.7617 8.53931 54.6213 7.67969 55.6817 7.67969Z" fill="white"/>
<path d="M40.3184 11.5195C41.3789 11.5195 42.2384 12.3792 42.2384 13.4395C42.2384 14.5 41.3789 15.3595 40.3184 15.3595C39.2581 15.3595 38.3984 14.5 38.3984 13.4395C38.3984 12.3792 39.2581 11.5195 40.3184 11.5195Z" fill="white"/>
<path d="M51.838 11.5195C52.8984 11.5195 53.758 12.3792 53.758 13.4395C53.758 14.5 52.8984 15.3595 51.838 15.3595C50.7776 15.3595 49.918 14.5 49.918 13.4395C49.918 12.3792 50.7776 11.5195 51.838 11.5195Z" fill="white"/>
<path d="M63.3614 11.5195C64.4218 11.5195 65.2814 12.3792 65.2814 13.4395C65.2814 14.5 64.4218 15.3595 63.3614 15.3595C62.301 15.3595 61.4414 14.5 61.4414 13.4395C61.4414 12.3792 62.301 11.5195 63.3614 11.5195Z" fill="white"/>
<path d="M32.6388 15.3594C33.6992 15.3594 34.5588 16.219 34.5588 17.2794C34.5588 18.3398 33.6992 19.1994 32.6388 19.1994C31.5784 19.1994 30.7188 18.3398 30.7188 17.2794C30.7188 16.219 31.5784 15.3594 32.6388 15.3594Z" fill="white"/>
<path d="M36.4786 15.3594C37.539 15.3594 38.3986 16.219 38.3986 17.2794C38.3986 18.3398 37.539 19.1994 36.4786 19.1994C35.4182 19.1994 34.5586 18.3398 34.5586 17.2794C34.5586 16.219 35.4182 15.3594 36.4786 15.3594Z" fill="white"/>
<path d="M40.3184 15.3594C41.3789 15.3594 42.2384 16.219 42.2384 17.2794C42.2384 18.3398 41.3789 19.1994 40.3184 19.1994C39.2581 19.1994 38.3984 18.3398 38.3984 17.2794C38.3984 16.219 39.2581 15.3594 40.3184 15.3594Z" fill="white"/>
<path d="M51.838 15.3594C52.8984 15.3594 53.758 16.219 53.758 17.2794C53.758 18.3398 52.8984 19.1994 51.838 19.1994C50.7776 19.1994 49.918 18.3398 49.918 17.2794C49.918 16.219 50.7776 15.3594 51.838 15.3594Z" fill="white"/>
<path d="M55.6817 15.3594C56.7422 15.3594 57.6017 16.219 57.6017 17.2794C57.6017 18.3398 56.7422 19.1994 55.6817 19.1994C54.6213 19.1994 53.7617 18.3398 53.7617 17.2794C53.7617 16.219 54.6213 15.3594 55.6817 15.3594Z" fill="white"/>
<path d="M63.3614 15.3594C64.4218 15.3594 65.2814 16.219 65.2814 17.2794C65.2814 18.3398 64.4218 19.1994 63.3614 19.1994C62.301 19.1994 61.4414 18.3398 61.4414 17.2794C61.4414 16.219 62.301 15.3594 63.3614 15.3594Z" fill="white"/>
<path d="M44.1583 19.1992C45.2187 19.1992 46.0783 20.0588 46.0783 21.1192C46.0783 22.1797 45.2187 23.0392 44.1583 23.0392C43.0979 23.0392 42.2383 22.1797 42.2383 21.1192C42.2383 20.0588 43.0979 19.1992 44.1583 19.1992Z" fill="white"/>
<path d="M51.838 19.1992C52.8984 19.1992 53.758 20.0588 53.758 21.1192C53.758 22.1797 52.8984 23.0392 51.838 23.0392C50.7776 23.0392 49.918 22.1797 49.918 21.1192C49.918 20.0588 50.7776 19.1992 51.838 19.1992Z" fill="white"/>
<path d="M55.6817 19.1992C56.7422 19.1992 57.6017 20.0588 57.6017 21.1192C57.6017 22.1797 56.7422 23.0392 55.6817 23.0392C54.6213 23.0392 53.7617 22.1797 53.7617 21.1192C53.7617 20.0588 54.6213 19.1992 55.6817 19.1992Z" fill="white"/>
<path d="M32.6388 23.0391C33.6992 23.0391 34.5588 23.8987 34.5588 24.9591C34.5588 26.0195 33.6992 26.8791 32.6388 26.8791C31.5784 26.8791 30.7188 26.0195 30.7188 24.9591C30.7188 23.8987 31.5784 23.0391 32.6388 23.0391Z" fill="white"/>
<path d="M40.3184 23.0391C41.3789 23.0391 42.2384 23.8987 42.2384 24.9591C42.2384 26.0195 41.3789 26.8791 40.3184 26.8791C39.2581 26.8791 38.3984 26.0195 38.3984 24.9591C38.3984 23.8987 39.2581 23.0391 40.3184 23.0391Z" fill="white"/>
<path d="M47.9981 23.0391C49.0586 23.0391 49.9181 23.8987 49.9181 24.9591C49.9181 26.0195 49.0586 26.8791 47.9981 26.8791C46.9377 26.8791 46.0781 26.0195 46.0781 24.9591C46.0781 23.8987 46.9377 23.0391 47.9981 23.0391Z" fill="white"/>
<path d="M55.6817 23.0391C56.7422 23.0391 57.6017 23.8987 57.6017 24.9591C57.6017 26.0195 56.7422 26.8791 55.6817 26.8791C54.6213 26.8791 53.7617 26.0195 53.7617 24.9591C53.7617 23.8987 54.6213 23.0391 55.6817 23.0391Z" fill="white"/>
<path d="M63.3614 23.0391C64.4218 23.0391 65.2814 23.8987 65.2814 24.9591C65.2814 26.0195 64.4218 26.8791 63.3614 26.8791C62.301 26.8791 61.4414 26.0195 61.4414 24.9591C61.4414 23.8987 62.301 23.0391 63.3614 23.0391Z" fill="white"/>
<path d="M36.4786 26.8809C37.539 26.8809 38.3986 27.7405 38.3986 28.8009C38.3986 29.8613 37.539 30.7209 36.4786 30.7209C35.4182 30.7209 34.5586 29.8613 34.5586 28.8009C34.5586 27.7405 35.4182 26.8809 36.4786 26.8809Z" fill="white"/>
<path d="M40.3184 26.8809C41.3789 26.8809 42.2384 27.7405 42.2384 28.8009C42.2384 29.8613 41.3789 30.7209 40.3184 30.7209C39.2581 30.7209 38.3984 29.8613 38.3984 28.8009C38.3984 27.7405 39.2581 26.8809 40.3184 26.8809Z" fill="white"/>
<path d="M47.9981 26.8809C49.0586 26.8809 49.9181 27.7405 49.9181 28.8009C49.9181 29.8613 49.0586 30.7209 47.9981 30.7209C46.9377 30.7209 46.0781 29.8613 46.0781 28.8009C46.0781 27.7405 46.9377 26.8809 47.9981 26.8809Z" fill="white"/>
<path d="M51.838 26.8809C52.8984 26.8809 53.758 27.7405 53.758 28.8009C53.758 29.8613 52.8984 30.7209 51.838 30.7209C50.7776 30.7209 49.918 29.8613 49.918 28.8009C49.918 27.7405 50.7776 26.8809 51.838 26.8809Z" fill="white"/>
<path d="M55.6817 26.8809C56.7422 26.8809 57.6017 27.7405 57.6017 28.8009C57.6017 29.8613 56.7422 30.7209 55.6817 30.7209C54.6213 30.7209 53.7617 29.8613 53.7617 28.8009C53.7617 27.7405 54.6213 26.8809 55.6817 26.8809Z" fill="white"/>
<path d="M1.92 30.7188C2.98043 30.7188 3.84 31.5784 3.84 32.6388C3.84 33.6992 2.98043 34.5588 1.92 34.5588C0.859622 34.5588 0 33.6992 0 32.6388C0 31.5784 0.859622 30.7188 1.92 30.7188Z" fill="white"/>
<path d="M13.4395 30.7188C14.5 30.7188 15.3595 31.5784 15.3595 32.6388C15.3595 33.6992 14.5 34.5588 13.4395 34.5588C12.3792 34.5588 11.5195 33.6992 11.5195 32.6388C11.5195 31.5784 12.3792 30.7188 13.4395 30.7188Z" fill="white"/>
<path d="M17.2794 30.7188C18.3398 30.7188 19.1994 31.5784 19.1994 32.6388C19.1994 33.6992 18.3398 34.5588 17.2794 34.5588C16.219 34.5588 15.3594 33.6992 15.3594 32.6388C15.3594 31.5784 16.219 30.7188 17.2794 30.7188Z" fill="white"/>
<path d="M21.1192 30.7188C22.1797 30.7188 23.0392 31.5784 23.0392 32.6388C23.0392 33.6992 22.1797 34.5588 21.1192 34.5588C20.0588 34.5588 19.1992 33.6992 19.1992 32.6388C19.1992 31.5784 20.0588 30.7188 21.1192 30.7188Z" fill="white"/>
<path d="M24.9591 30.7188C26.0195 30.7188 26.8791 31.5784 26.8791 32.6388C26.8791 33.6992 26.0195 34.5588 24.9591 34.5588C23.8987 34.5588 23.0391 33.6992 23.0391 32.6388C23.0391 31.5784 23.8987 30.7188 24.9591 30.7188Z" fill="white"/>
<path d="M28.7989 30.7188C29.8593 30.7188 30.7189 31.5784 30.7189 32.6388C30.7189 33.6992 29.8593 34.5588 28.7989 34.5588C27.7385 34.5588 26.8789 33.6992 26.8789 32.6388C26.8789 31.5784 27.7385 30.7188 28.7989 30.7188Z" fill="white"/>
<path d="M32.6388 30.7188C33.6992 30.7188 34.5588 31.5784 34.5588 32.6388C34.5588 33.6992 33.6992 34.5588 32.6388 34.5588C31.5784 34.5588 30.7188 33.6992 30.7188 32.6388C30.7188 31.5784 31.5784 30.7188 32.6388 30.7188Z" fill="white"/>
<path d="M47.9981 30.7188C49.0586 30.7188 49.9181 31.5784 49.9181 32.6388C49.9181 33.6992 49.0586 34.5588 47.9981 34.5588C46.9377 34.5588 46.0781 33.6992 46.0781 32.6388C46.0781 31.5784 46.9377 30.7188 47.9981 30.7188Z" fill="white"/>
<path d="M55.6817 30.7188C56.7422 30.7188 57.6017 31.5784 57.6017 32.6388C57.6017 33.6992 56.7422 34.5588 55.6817 34.5588C54.6213 34.5588 53.7617 33.6992 53.7617 32.6388C53.7617 31.5784 54.6213 30.7188 55.6817 30.7188Z" fill="white"/>
<path d="M59.5216 30.7188C60.582 30.7188 61.4416 31.5784 61.4416 32.6388C61.4416 33.6992 60.582 34.5588 59.5216 34.5588C58.4612 34.5588 57.6016 33.6992 57.6016 32.6388C57.6016 31.5784 58.4612 30.7188 59.5216 30.7188Z" fill="white"/>
<path d="M63.3614 30.7188C64.4218 30.7188 65.2814 31.5784 65.2814 32.6388C65.2814 33.6992 64.4218 34.5588 63.3614 34.5588C62.301 34.5588 61.4414 33.6992 61.4414 32.6388C61.4414 31.5784 62.301 30.7188 63.3614 30.7188Z" fill="white"/>
<path d="M67.2013 30.7188C68.2617 30.7188 69.1213 31.5784 69.1213 32.6388C69.1213 33.6992 68.2617 34.5588 67.2013 34.5588C66.1409 34.5588 65.2812 33.6992 65.2812 32.6388C65.2812 31.5784 66.1409 30.7188 67.2013 30.7188Z" fill="white"/>
<path d="M78.7208 30.7188C79.7812 30.7188 80.6408 31.5784 80.6408 32.6388C80.6408 33.6992 79.7812 34.5588 78.7208 34.5588C77.6604 34.5588 76.8008 33.6992 76.8008 32.6388C76.8008 31.5784 77.6604 30.7188 78.7208 30.7188Z" fill="white"/>
<path d="M86.4005 30.7188C87.4609 30.7188 88.3205 31.5784 88.3205 32.6388C88.3205 33.6992 87.4609 34.5588 86.4005 34.5588C85.3401 34.5588 84.4805 33.6992 84.4805 32.6388C84.4805 31.5784 85.3401 30.7188 86.4005 30.7188Z" fill="white"/>
<path d="M90.2403 30.7188C91.3007 30.7188 92.1603 31.5784 92.1603 32.6388C92.1603 33.6992 91.3007 34.5588 90.2403 34.5588C89.1799 34.5588 88.3203 33.6992 88.3203 32.6388C88.3203 31.5784 89.1799 30.7188 90.2403 30.7188Z" fill="white"/>
<path d="M94.0802 30.7188C95.1406 30.7188 96.0002 31.5784 96.0002 32.6388C96.0002 33.6992 95.1406 34.5588 94.0802 34.5588C93.0198 34.5588 92.1602 33.6992 92.1602 32.6388C92.1602 31.5784 93.0198 30.7188 94.0802 30.7188Z" fill="white"/>
<path d="M1.92 34.5605C2.98043 34.5605 3.84 35.4202 3.84 36.4805C3.84 37.541 2.98043 38.4005 1.92 38.4005C0.859622 38.4005 0 37.541 0 36.4805C0 35.4202 0.859622 34.5605 1.92 34.5605Z" fill="white"/>
<path d="M13.4395 34.5605C14.5 34.5605 15.3595 35.4202 15.3595 36.4805C15.3595 37.541 14.5 38.4005 13.4395 38.4005C12.3792 38.4005 11.5195 37.541 11.5195 36.4805C11.5195 35.4202 12.3792 34.5605 13.4395 34.5605Z" fill="white"/>
<path d="M21.1192 34.5605C22.1797 34.5605 23.0392 35.4202 23.0392 36.4805C23.0392 37.541 22.1797 38.4005 21.1192 38.4005C20.0588 38.4005 19.1992 37.541 19.1992 36.4805C19.1992 35.4202 20.0588 34.5605 21.1192 34.5605Z" fill="white"/>
<path d="M36.4786 34.5605C37.539 34.5605 38.3986 35.4202 38.3986 36.4805C38.3986 37.541 37.539 38.4005 36.4786 38.4005C35.4182 38.4005 34.5586 37.541 34.5586 36.4805C34.5586 35.4202 35.4182 34.5605 36.4786 34.5605Z" fill="white"/>
<path d="M40.3184 34.5605C41.3789 34.5605 42.2384 35.4202 42.2384 36.4805C42.2384 37.541 41.3789 38.4005 40.3184 38.4005C39.2581 38.4005 38.3984 37.541 38.3984 36.4805C38.3984 35.4202 39.2581 34.5605 40.3184 34.5605Z" fill="white"/>
<path d="M55.6817 34.5605C56.7422 34.5605 57.6017 35.4202 57.6017 36.4805C57.6017 37.541 56.7422 38.4005 55.6817 38.4005C54.6213 38.4005 53.7617 37.541 53.7617 36.4805C53.7617 35.4202 54.6213 34.5605 55.6817 34.5605Z" fill="white"/>
<path d="M59.5216 34.5605C60.582 34.5605 61.4416 35.4202 61.4416 36.4805C61.4416 37.541 60.582 38.4005 59.5216 38.4005C58.4612 38.4005 57.6016 37.541 57.6016 36.4805C57.6016 35.4202 58.4612 34.5605 59.5216 34.5605Z" fill="white"/>
<path d="M74.8809 34.5605C75.9414 34.5605 76.8009 35.4202 76.8009 36.4805C76.8009 37.541 75.9414 38.4005 74.8809 38.4005C73.8206 38.4005 72.9609 37.541 72.9609 36.4805C72.9609 35.4202 73.8206 34.5605 74.8809 34.5605Z" fill="white"/>
<path d="M78.7208 34.5605C79.7812 34.5605 80.6408 35.4202 80.6408 36.4805C80.6408 37.541 79.7812 38.4005 78.7208 38.4005C77.6604 38.4005 76.8008 37.541 76.8008 36.4805C76.8008 35.4202 77.6604 34.5605 78.7208 34.5605Z" fill="white"/>
<path d="M82.5606 34.5605C83.6211 34.5605 84.4806 35.4202 84.4806 36.4805C84.4806 37.541 83.6211 38.4005 82.5606 38.4005C81.5002 38.4005 80.6406 37.541 80.6406 36.4805C80.6406 35.4202 81.5002 34.5605 82.5606 34.5605Z" fill="white"/>
<path d="M86.4005 34.5605C87.4609 34.5605 88.3205 35.4202 88.3205 36.4805C88.3205 37.541 87.4609 38.4005 86.4005 38.4005C85.3401 38.4005 84.4805 37.541 84.4805 36.4805C84.4805 35.4202 85.3401 34.5605 86.4005 34.5605Z" fill="white"/>
<path d="M90.2403 34.5605C91.3007 34.5605 92.1603 35.4202 92.1603 36.4805C92.1603 37.541 91.3007 38.4005 90.2403 38.4005C89.1799 38.4005 88.3203 37.541 88.3203 36.4805C88.3203 35.4202 89.1799 34.5605 90.2403 34.5605Z" fill="white"/>
<path d="M5.75984 38.4004C6.82028 38.4004 7.67984 39.26 7.67984 40.3204C7.67984 41.3808 6.82028 42.2404 5.75984 42.2404C4.69947 42.2404 3.83984 41.3808 3.83984 40.3204C3.83984 39.26 4.69947 38.4004 5.75984 38.4004Z" fill="white"/>
<path d="M9.59969 38.4004C10.6601 38.4004 11.5197 39.26 11.5197 40.3204C11.5197 41.3808 10.6601 42.2404 9.59969 42.2404C8.53931 42.2404 7.67969 41.3808 7.67969 40.3204C7.67969 39.26 8.53931 38.4004 9.59969 38.4004Z" fill="white"/>
<path d="M24.9591 38.4004C26.0195 38.4004 26.8791 39.26 26.8791 40.3204C26.8791 41.3808 26.0195 42.2404 24.9591 42.2404C23.8987 42.2404 23.0391 41.3808 23.0391 40.3204C23.0391 39.26 23.8987 38.4004 24.9591 38.4004Z" fill="white"/>
<path d="M40.3184 38.4004C41.3789 38.4004 42.2384 39.26 42.2384 40.3204C42.2384 41.3808 41.3789 42.2404 40.3184 42.2404C39.2581 42.2404 38.3984 41.3808 38.3984 40.3204C38.3984 39.26 39.2581 38.4004 40.3184 38.4004Z" fill="white"/>
<path d="M47.9981 38.4004C49.0586 38.4004 49.9181 39.26 49.9181 40.3204C49.9181 41.3808 49.0586 42.2404 47.9981 42.2404C46.9377 42.2404 46.0781 41.3808 46.0781 40.3204C46.0781 39.26 46.9377 38.4004 47.9981 38.4004Z" fill="white"/>
<path d="M51.838 38.4004C52.8984 38.4004 53.758 39.26 53.758 40.3204C53.758 41.3808 52.8984 42.2404 51.838 42.2404C50.7776 42.2404 49.918 41.3808 49.918 40.3204C49.918 39.26 50.7776 38.4004 51.838 38.4004Z" fill="white"/>
<path d="M55.6817 38.4004C56.7422 38.4004 57.6017 39.26 57.6017 40.3204C57.6017 41.3808 56.7422 42.2404 55.6817 42.2404C54.6213 42.2404 53.7617 41.3808 53.7617 40.3204C53.7617 39.26 54.6213 38.4004 55.6817 38.4004Z" fill="white"/>
<path d="M59.5216 38.4004C60.582 38.4004 61.4416 39.26 61.4416 40.3204C61.4416 41.3808 60.582 42.2404 59.5216 42.2404C58.4612 42.2404 57.6016 41.3808 57.6016 40.3204C57.6016 39.26 58.4612 38.4004 59.5216 38.4004Z" fill="white"/>
<path d="M63.3614 38.4004C64.4218 38.4004 65.2814 39.26 65.2814 40.3204C65.2814 41.3808 64.4218 42.2404 63.3614 42.2404C62.301 42.2404 61.4414 41.3808 61.4414 40.3204C61.4414 39.26 62.301 38.4004 63.3614 38.4004Z" fill="white"/>
<path d="M67.2013 38.4004C68.2617 38.4004 69.1213 39.26 69.1213 40.3204C69.1213 41.3808 68.2617 42.2404 67.2013 42.2404C66.1409 42.2404 65.2812 41.3808 65.2812 40.3204C65.2812 39.26 66.1409 38.4004 67.2013 38.4004Z" fill="white"/>
<path d="M71.0411 38.4004C72.1015 38.4004 72.9611 39.26 72.9611 40.3204C72.9611 41.3808 72.1015 42.2404 71.0411 42.2404C69.9807 42.2404 69.1211 41.3808 69.1211 40.3204C69.1211 39.26 69.9807 38.4004 71.0411 38.4004Z" fill="white"/>
<path d="M74.8809 38.4004C75.9414 38.4004 76.8009 39.26 76.8009 40.3204C76.8009 41.3808 75.9414 42.2404 74.8809 42.2404C73.8206 42.2404 72.9609 41.3808 72.9609 40.3204C72.9609 39.26 73.8206 38.4004 74.8809 38.4004Z" fill="white"/>
<path d="M82.5606 38.4004C83.6211 38.4004 84.4806 39.26 84.4806 40.3204C84.4806 41.3808 83.6211 42.2404 82.5606 42.2404C81.5002 42.2404 80.6406 41.3808 80.6406 40.3204C80.6406 39.26 81.5002 38.4004 82.5606 38.4004Z" fill="white"/>
<path d="M94.0802 38.4004C95.1406 38.4004 96.0002 39.26 96.0002 40.3204C96.0002 41.3808 95.1406 42.2404 94.0802 42.2404C93.0198 42.2404 92.1602 41.3808 92.1602 40.3204C92.1602 39.26 93.0198 38.4004 94.0802 38.4004Z" fill="white"/>
<path d="M1.92 42.2402C2.98043 42.2402 3.84 43.0999 3.84 44.1602C3.84 45.2207 2.98043 46.0802 1.92 46.0802C0.859622 46.0802 0 45.2207 0 44.1602C0 43.0999 0.859622 42.2402 1.92 42.2402Z" fill="white"/>
<path d="M5.75984 42.2402C6.82028 42.2402 7.67984 43.0999 7.67984 44.1602C7.67984 45.2207 6.82028 46.0802 5.75984 46.0802C4.69947 46.0802 3.83984 45.2207 3.83984 44.1602C3.83984 43.0999 4.69947 42.2402 5.75984 42.2402Z" fill="white"/>
<path d="M9.59969 42.2402C10.6601 42.2402 11.5197 43.0999 11.5197 44.1602C11.5197 45.2207 10.6601 46.0802 9.59969 46.0802C8.53931 46.0802 7.67969 45.2207 7.67969 44.1602C7.67969 43.0999 8.53931 42.2402 9.59969 42.2402Z" fill="white"/>
<path d="M21.1192 42.2402C22.1797 42.2402 23.0392 43.0999 23.0392 44.1602C23.0392 45.2207 22.1797 46.0802 21.1192 46.0802C20.0588 46.0802 19.1992 45.2207 19.1992 44.1602C19.1992 43.0999 20.0588 42.2402 21.1192 42.2402Z" fill="white"/>
<path d="M40.3184 42.2402C41.3789 42.2402 42.2384 43.0999 42.2384 44.1602C42.2384 45.2207 41.3789 46.0802 40.3184 46.0802C39.2581 46.0802 38.3984 45.2207 38.3984 44.1602C38.3984 43.0999 39.2581 42.2402 40.3184 42.2402Z" fill="white"/>
<path d="M44.1583 42.2402C45.2187 42.2402 46.0783 43.0999 46.0783 44.1602C46.0783 45.2207 45.2187 46.0802 44.1583 46.0802C43.0979 46.0802 42.2383 45.2207 42.2383 44.1602C42.2383 43.0999 43.0979 42.2402 44.1583 42.2402Z" fill="white"/>
<path d="M55.6817 42.2402C56.7422 42.2402 57.6017 43.0999 57.6017 44.1602C57.6017 45.2207 56.7422 46.0802 55.6817 46.0802C54.6213 46.0802 53.7617 45.2207 53.7617 44.1602C53.7617 43.0999 54.6213 42.2402 55.6817 42.2402Z" fill="white"/>
<path d="M71.0411 42.2402C72.1015 42.2402 72.9611 43.0999 72.9611 44.1602C72.9611 45.2207 72.1015 46.0802 71.0411 46.0802C69.9807 46.0802 69.1211 45.2207 69.1211 44.1602C69.1211 43.0999 69.9807 42.2402 71.0411 42.2402Z" fill="white"/>
<path d="M74.8809 42.2402C75.9414 42.2402 76.8009 43.0999 76.8009 44.1602C76.8009 45.2207 75.9414 46.0802 74.8809 46.0802C73.8206 46.0802 72.9609 45.2207 72.9609 44.1602C72.9609 43.0999 73.8206 42.2402 74.8809 42.2402Z" fill="white"/>
<path d="M82.5606 42.2402C83.6211 42.2402 84.4806 43.0999 84.4806 44.1602C84.4806 45.2207 83.6211 46.0802 82.5606 46.0802C81.5002 46.0802 80.6406 45.2207 80.6406 44.1602C80.6406 43.0999 81.5002 42.2402 82.5606 42.2402Z" fill="white"/>
<path d="M86.4005 42.2402C87.4609 42.2402 88.3205 43.0999 88.3205 44.1602C88.3205 45.2207 87.4609 46.0802 86.4005 46.0802C85.3401 46.0802 84.4805 45.2207 84.4805 44.1602C84.4805 43.0999 85.3401 42.2402 86.4005 42.2402Z" fill="white"/>
<path d="M90.2403 42.2402C91.3007 42.2402 92.1603 43.0999 92.1603 44.1602C92.1603 45.2207 91.3007 46.0802 90.2403 46.0802C89.1799 46.0802 88.3203 45.2207 88.3203 44.1602C88.3203 43.0999 89.1799 42.2402 90.2403 42.2402Z" fill="white"/>
<path d="M94.0802 42.2402C95.1406 42.2402 96.0002 43.0999 96.0002 44.1602C96.0002 45.2207 95.1406 46.0802 94.0802 46.0802C93.0198 46.0802 92.1602 45.2207 92.1602 44.1602C92.1602 43.0999 93.0198 42.2402 94.0802 42.2402Z" fill="white"/>
<path d="M1.92 46.0801C2.98043 46.0801 3.84 46.9397 3.84 48.0001C3.84 49.0605 2.98043 49.9201 1.92 49.9201C0.859622 49.9201 0 49.0605 0 48.0001C0 46.9397 0.859622 46.0801 1.92 46.0801Z" fill="white"/>
<path d="M21.1192 46.0801C22.1797 46.0801 23.0392 46.9397 23.0392 48.0001C23.0392 49.0605 22.1797 49.9201 21.1192 49.9201C20.0588 49.9201 19.1992 49.0605 19.1992 48.0001C19.1992 46.9397 20.0588 46.0801 21.1192 46.0801Z" fill="white"/>
<path d="M24.9591 46.0801C26.0195 46.0801 26.8791 46.9397 26.8791 48.0001C26.8791 49.0605 26.0195 49.9201 24.9591 49.9201C23.8987 49.9201 23.0391 49.0605 23.0391 48.0001C23.0391 46.9397 23.8987 46.0801 24.9591 46.0801Z" fill="white"/>
<path d="M28.7989 46.0801C29.8593 46.0801 30.7189 46.9397 30.7189 48.0001C30.7189 49.0605 29.8593 49.9201 28.7989 49.9201C27.7385 49.9201 26.8789 49.0605 26.8789 48.0001C26.8789 46.9397 27.7385 46.0801 28.7989 46.0801Z" fill="white"/>
<path d="M36.4786 46.0801C37.539 46.0801 38.3986 46.9397 38.3986 48.0001C38.3986 49.0605 37.539 49.9201 36.4786 49.9201C35.4182 49.9201 34.5586 49.0605 34.5586 48.0001C34.5586 46.9397 35.4182 46.0801 36.4786 46.0801Z" fill="white"/>
<path d="M47.9981 46.0801C49.0586 46.0801 49.9181 46.9397 49.9181 48.0001C49.9181 49.0605 49.0586 49.9201 47.9981 49.9201C46.9377 49.9201 46.0781 49.0605 46.0781 48.0001C46.0781 46.9397 46.9377 46.0801 47.9981 46.0801Z" fill="white"/>
<path d="M63.3614 46.0801C64.4218 46.0801 65.2814 46.9397 65.2814 48.0001C65.2814 49.0605 64.4218 49.9201 63.3614 49.9201C62.301 49.9201 61.4414 49.0605 61.4414 48.0001C61.4414 46.9397 62.301 46.0801 63.3614 46.0801Z" fill="white"/>
<path d="M71.0411 46.0801C72.1015 46.0801 72.9611 46.9397 72.9611 48.0001C72.9611 49.0605 72.1015 49.9201 71.0411 49.9201C69.9807 49.9201 69.1211 49.0605 69.1211 48.0001C69.1211 46.9397 69.9807 46.0801 71.0411 46.0801Z" fill="white"/>
<path d="M74.8809 46.0801C75.9414 46.0801 76.8009 46.9397 76.8009 48.0001C76.8009 49.0605 75.9414 49.9201 74.8809 49.9201C73.8206 49.9201 72.9609 49.0605 72.9609 48.0001C72.9609 46.9397 73.8206 46.0801 74.8809 46.0801Z" fill="white"/>
<path d="M94.0802 46.0801C95.1406 46.0801 96.0002 46.9397 96.0002 48.0001C96.0002 49.0605 95.1406 49.9201 94.0802 49.9201C93.0198 49.9201 92.1602 49.0605 92.1602 48.0001C92.1602 46.9397 93.0198 46.0801 94.0802 46.0801Z" fill="white"/>
<path d="M1.92 49.9199C2.98043 49.9199 3.84 50.7795 3.84 51.8399C3.84 52.9004 2.98043 53.7599 1.92 53.7599C0.859622 53.7599 0 52.9004 0 51.8399C0 50.7795 0.859622 49.9199 1.92 49.9199Z" fill="white"/>
<path d="M9.59969 49.9199C10.6601 49.9199 11.5197 50.7795 11.5197 51.8399C11.5197 52.9004 10.6601 53.7599 9.59969 53.7599C8.53931 53.7599 7.67969 52.9004 7.67969 51.8399C7.67969 50.7795 8.53931 49.9199 9.59969 49.9199Z" fill="white"/>
<path d="M13.4395 49.9199C14.5 49.9199 15.3595 50.7795 15.3595 51.8399C15.3595 52.9004 14.5 53.7599 13.4395 53.7599C12.3792 53.7599 11.5195 52.9004 11.5195 51.8399C11.5195 50.7795 12.3792 49.9199 13.4395 49.9199Z" fill="white"/>
<path d="M21.1192 49.9199C22.1797 49.9199 23.0392 50.7795 23.0392 51.8399C23.0392 52.9004 22.1797 53.7599 21.1192 53.7599C20.0588 53.7599 19.1992 52.9004 19.1992 51.8399C19.1992 50.7795 20.0588 49.9199 21.1192 49.9199Z" fill="white"/>
<path d="M28.7989 49.9199C29.8593 49.9199 30.7189 50.7795 30.7189 51.8399C30.7189 52.9004 29.8593 53.7599 28.7989 53.7599C27.7385 53.7599 26.8789 52.9004 26.8789 51.8399C26.8789 50.7795 27.7385 49.9199 28.7989 49.9199Z" fill="white"/>
<path d="M59.5216 49.9199C60.582 49.9199 61.4416 50.7795 61.4416 51.8399C61.4416 52.9004 60.582 53.7599 59.5216 53.7599C58.4612 53.7599 57.6016 52.9004 57.6016 51.8399C57.6016 50.7795 58.4612 49.9199 59.5216 49.9199Z" fill="white"/>
<path d="M67.2013 49.9199C68.2617 49.9199 69.1213 50.7795 69.1213 51.8399C69.1213 52.9004 68.2617 53.7599 67.2013 53.7599C66.1409 53.7599 65.2812 52.9004 65.2812 51.8399C65.2812 50.7795 66.1409 49.9199 67.2013 49.9199Z" fill="white"/>
<path d="M78.7208 49.9199C79.7812 49.9199 80.6408 50.7795 80.6408 51.8399C80.6408 52.9004 79.7812 53.7599 78.7208 53.7599C77.6604 53.7599 76.8008 52.9004 76.8008 51.8399C76.8008 50.7795 77.6604 49.9199 78.7208 49.9199Z" fill="white"/>
<path d="M90.2403 49.9199C91.3007 49.9199 92.1603 50.7795 92.1603 51.8399C92.1603 52.9004 91.3007 53.7599 90.2403 53.7599C89.1799 53.7599 88.3203 52.9004 88.3203 51.8399C88.3203 50.7795 89.1799 49.9199 90.2403 49.9199Z" fill="white"/>
<path d="M1.92 53.7598C2.98043 53.7598 3.84 54.6194 3.84 55.6798C3.84 56.7402 2.98043 57.5998 1.92 57.5998C0.859622 57.5998 0 56.7402 0 55.6798C0 54.6194 0.859622 53.7598 1.92 53.7598Z" fill="white"/>
<path d="M5.75984 53.7598C6.82028 53.7598 7.67984 54.6194 7.67984 55.6798C7.67984 56.7402 6.82028 57.5998 5.75984 57.5998C4.69947 57.5998 3.83984 56.7402 3.83984 55.6798C3.83984 54.6194 4.69947 53.7598 5.75984 53.7598Z" fill="white"/>
<path d="M9.59969 53.7598C10.6601 53.7598 11.5197 54.6194 11.5197 55.6798C11.5197 56.7402 10.6601 57.5998 9.59969 57.5998C8.53931 57.5998 7.67969 56.7402 7.67969 55.6798C7.67969 54.6194 8.53931 53.7598 9.59969 53.7598Z" fill="white"/>
<path d="M17.2794 53.7598C18.3398 53.7598 19.1994 54.6194 19.1994 55.6798C19.1994 56.7402 18.3398 57.5998 17.2794 57.5998C16.219 57.5998 15.3594 56.7402 15.3594 55.6798C15.3594 54.6194 16.219 53.7598 17.2794 53.7598Z" fill="white"/>
<path d="M21.1192 53.7598C22.1797 53.7598 23.0392 54.6194 23.0392 55.6798C23.0392 56.7402 22.1797 57.5998 21.1192 57.5998C20.0588 57.5998 19.1992 56.7402 19.1992 55.6798C19.1992 54.6194 20.0588 53.7598 21.1192 53.7598Z" fill="white"/>
<path d="M24.9591 53.7598C26.0195 53.7598 26.8791 54.6194 26.8791 55.6798C26.8791 56.7402 26.0195 57.5998 24.9591 57.5998C23.8987 57.5998 23.0391 56.7402 23.0391 55.6798C23.0391 54.6194 23.8987 53.7598 24.9591 53.7598Z" fill="white"/>
<path d="M28.7989 53.7598C29.8593 53.7598 30.7189 54.6194 30.7189 55.6798C30.7189 56.7402 29.8593 57.5998 28.7989 57.5998C27.7385 57.5998 26.8789 56.7402 26.8789 55.6798C26.8789 54.6194 27.7385 53.7598 28.7989 53.7598Z" fill="white"/>
<path d="M32.6388 53.7598C33.6992 53.7598 34.5588 54.6194 34.5588 55.6798C34.5588 56.7402 33.6992 57.5998 32.6388 57.5998C31.5784 57.5998 30.7188 56.7402 30.7188 55.6798C30.7188 54.6194 31.5784 53.7598 32.6388 53.7598Z" fill="white"/>
<path d="M44.1583 53.7598C45.2187 53.7598 46.0783 54.6194 46.0783 55.6798C46.0783 56.7402 45.2187 57.5998 44.1583 57.5998C43.0979 57.5998 42.2383 56.7402 42.2383 55.6798C42.2383 54.6194 43.0979 53.7598 44.1583 53.7598Z" fill="white"/>
<path d="M47.9981 53.7598C49.0586 53.7598 49.9181 54.6194 49.9181 55.6798C49.9181 56.7402 49.0586 57.5998 47.9981 57.5998C46.9377 57.5998 46.0781 56.7402 46.0781 55.6798C46.0781 54.6194 46.9377 53.7598 47.9981 53.7598Z" fill="white"/>
<path d="M51.838 53.7598C52.8984 53.7598 53.758 54.6194 53.758 55.6798C53.758 56.7402 52.8984 57.5998 51.838 57.5998C50.7776 57.5998 49.918 56.7402 49.918 55.6798C49.918 54.6194 50.7776 53.7598 51.838 53.7598Z" fill="white"/>
<path d="M59.5216 53.7598C60.582 53.7598 61.4416 54.6194 61.4416 55.6798C61.4416 56.7402 60.582 57.5998 59.5216 57.5998C58.4612 57.5998 57.6016 56.7402 57.6016 55.6798C57.6016 54.6194 58.4612 53.7598 59.5216 53.7598Z" fill="white"/>
<path d="M71.0411 53.7598C72.1015 53.7598 72.9611 54.6194 72.9611 55.6798C72.9611 56.7402 72.1015 57.5998 71.0411 57.5998C69.9807 57.5998 69.1211 56.7402 69.1211 55.6798C69.1211 54.6194 69.9807 53.7598 71.0411 53.7598Z" fill="white"/>
<path d="M78.7208 53.7598C79.7812 53.7598 80.6408 54.6194 80.6408 55.6798C80.6408 56.7402 79.7812 57.5998 78.7208 57.5998C77.6604 57.5998 76.8008 56.7402 76.8008 55.6798C76.8008 54.6194 77.6604 53.7598 78.7208 53.7598Z" fill="white"/>
<path d="M82.5606 53.7598C83.6211 53.7598 84.4806 54.6194 84.4806 55.6798C84.4806 56.7402 83.6211 57.5998 82.5606 57.5998C81.5002 57.5998 80.6406 56.7402 80.6406 55.6798C80.6406 54.6194 81.5002 53.7598 82.5606 53.7598Z" fill="white"/>
<path d="M86.4005 53.7598C87.4609 53.7598 88.3205 54.6194 88.3205 55.6798C88.3205 56.7402 87.4609 57.5998 86.4005 57.5998C85.3401 57.5998 84.4805 56.7402 84.4805 55.6798C84.4805 54.6194 85.3401 53.7598 86.4005 53.7598Z" fill="white"/>
<path d="M90.2403 53.7598C91.3007 53.7598 92.1603 54.6194 92.1603 55.6798C92.1603 56.7402 91.3007 57.5998 90.2403 57.5998C89.1799 57.5998 88.3203 56.7402 88.3203 55.6798C88.3203 54.6194 89.1799 53.7598 90.2403 53.7598Z" fill="white"/>
<path d="M94.0802 53.7598C95.1406 53.7598 96.0002 54.6194 96.0002 55.6798C96.0002 56.7402 95.1406 57.5998 94.0802 57.5998C93.0198 57.5998 92.1602 56.7402 92.1602 55.6798C92.1602 54.6194 93.0198 53.7598 94.0802 53.7598Z" fill="white"/>
<path d="M1.92 57.5996C2.98043 57.5996 3.84 58.4592 3.84 59.5196C3.84 60.58 2.98043 61.4396 1.92 61.4396C0.859622 61.4396 0 60.58 0 59.5196C0 58.4592 0.859622 57.5996 1.92 57.5996Z" fill="white"/>
<path d="M13.4395 57.5996C14.5 57.5996 15.3595 58.4592 15.3595 59.5196C15.3595 60.58 14.5 61.4396 13.4395 61.4396C12.3792 61.4396 11.5195 60.58 11.5195 59.5196C11.5195 58.4592 12.3792 57.5996 13.4395 57.5996Z" fill="white"/>
<path d="M32.6388 57.5996C33.6992 57.5996 34.5588 58.4592 34.5588 59.5196C34.5588 60.58 33.6992 61.4396 32.6388 61.4396C31.5784 61.4396 30.7188 60.58 30.7188 59.5196C30.7188 58.4592 31.5784 57.5996 32.6388 57.5996Z" fill="white"/>
<path d="M40.3184 57.5996C41.3789 57.5996 42.2384 58.4592 42.2384 59.5196C42.2384 60.58 41.3789 61.4396 40.3184 61.4396C39.2581 61.4396 38.3984 60.58 38.3984 59.5196C38.3984 58.4592 39.2581 57.5996 40.3184 57.5996Z" fill="white"/>
<path d="M44.1583 57.5996C45.2187 57.5996 46.0783 58.4592 46.0783 59.5196C46.0783 60.58 45.2187 61.4396 44.1583 61.4396C43.0979 61.4396 42.2383 60.58 42.2383 59.5196C42.2383 58.4592 43.0979 57.5996 44.1583 57.5996Z" fill="white"/>
<path d="M74.8809 57.5996C75.9414 57.5996 76.8009 58.4592 76.8009 59.5196C76.8009 60.58 75.9414 61.4396 74.8809 61.4396C73.8206 61.4396 72.9609 60.58 72.9609 59.5196C72.9609 58.4592 73.8206 57.5996 74.8809 57.5996Z" fill="white"/>
<path d="M82.5606 57.5996C83.6211 57.5996 84.4806 58.4592 84.4806 59.5196C84.4806 60.58 83.6211 61.4396 82.5606 61.4396C81.5002 61.4396 80.6406 60.58 80.6406 59.5196C80.6406 58.4592 81.5002 57.5996 82.5606 57.5996Z" fill="white"/>
<path d="M86.4005 57.5996C87.4609 57.5996 88.3205 58.4592 88.3205 59.5196C88.3205 60.58 87.4609 61.4396 86.4005 61.4396C85.3401 61.4396 84.4805 60.58 84.4805 59.5196C84.4805 58.4592 85.3401 57.5996 86.4005 57.5996Z" fill="white"/>
<path d="M94.0802 57.5996C95.1406 57.5996 96.0002 58.4592 96.0002 59.5196C96.0002 60.58 95.1406 61.4396 94.0802 61.4396C93.0198 61.4396 92.1602 60.58 92.1602 59.5196C92.1602 58.4592 93.0198 57.5996 94.0802 57.5996Z" fill="white"/>
<path d="M1.92 61.4395C2.98043 61.4395 3.84 62.2991 3.84 63.3595C3.84 64.4199 2.98043 65.2795 1.92 65.2795C0.859622 65.2795 0 64.4199 0 63.3595C0 62.2991 0.859622 61.4395 1.92 61.4395Z" fill="white"/>
<path d="M13.4395 61.4395C14.5 61.4395 15.3595 62.2991 15.3595 63.3595C15.3595 64.4199 14.5 65.2795 13.4395 65.2795C12.3792 65.2795 11.5195 64.4199 11.5195 63.3595C11.5195 62.2991 12.3792 61.4395 13.4395 61.4395Z" fill="white"/>
<path d="M17.2794 61.4395C18.3398 61.4395 19.1994 62.2991 19.1994 63.3595C19.1994 64.4199 18.3398 65.2795 17.2794 65.2795C16.219 65.2795 15.3594 64.4199 15.3594 63.3595C15.3594 62.2991 16.219 61.4395 17.2794 61.4395Z" fill="white"/>
<path d="M21.1192 61.4395C22.1797 61.4395 23.0392 62.2991 23.0392 63.3595C23.0392 64.4199 22.1797 65.2795 21.1192 65.2795C20.0588 65.2795 19.1992 64.4199 19.1992 63.3595C19.1992 62.2991 20.0588 61.4395 21.1192 61.4395Z" fill="white"/>
<path d="M24.9591 61.4395C26.0195 61.4395 26.8791 62.2991 26.8791 63.3595C26.8791 64.4199 26.0195 65.2795 24.9591 65.2795C23.8987 65.2795 23.0391 64.4199 23.0391 63.3595C23.0391 62.2991 23.8987 61.4395 24.9591 61.4395Z" fill="white"/>
<path d="M36.4786 61.4395C37.539 61.4395 38.3986 62.2991 38.3986 63.3595C38.3986 64.4199 37.539 65.2795 36.4786 65.2795C35.4182 65.2795 34.5586 64.4199 34.5586 63.3595C34.5586 62.2991 35.4182 61.4395 36.4786 61.4395Z" fill="white"/>
<path d="M40.3184 61.4395C41.3789 61.4395 42.2384 62.2991 42.2384 63.3595C42.2384 64.4199 41.3789 65.2795 40.3184 65.2795C39.2581 65.2795 38.3984 64.4199 38.3984 63.3595C38.3984 62.2991 39.2581 61.4395 40.3184 61.4395Z" fill="white"/>
<path d="M47.9981 61.4395C49.0586 61.4395 49.9181 62.2991 49.9181 63.3595C49.9181 64.4199 49.0586 65.2795 47.9981 65.2795C46.9377 65.2795 46.0781 64.4199 46.0781 63.3595C46.0781 62.2991 46.9377 61.4395 47.9981 61.4395Z" fill="white"/>
<path d="M51.838 61.4395C52.8984 61.4395 53.758 62.2991 53.758 63.3595C53.758 64.4199 52.8984 65.2795 51.838 65.2795C50.7776 65.2795 49.918 64.4199 49.918 63.3595C49.918 62.2991 50.7776 61.4395 51.838 61.4395Z" fill="white"/>
<path d="M55.6817 61.4395C56.7422 61.4395 57.6017 62.2991 57.6017 63.3595C57.6017 64.4199 56.7422 65.2795 55.6817 65.2795C54.6213 65.2795 53.7617 64.4199 53.7617 63.3595C53.7617 62.2991 54.6213 61.4395 55.6817 61.4395Z" fill="white"/>
<path d="M59.5216 61.4395C60.582 61.4395 61.4416 62.2991 61.4416 63.3595C61.4416 64.4199 60.582 65.2795 59.5216 65.2795C58.4612 65.2795 57.6016 64.4199 57.6016 63.3595C57.6016 62.2991 58.4612 61.4395 59.5216 61.4395Z" fill="white"/>
<path d="M63.3614 61.4395C64.4218 61.4395 65.2814 62.2991 65.2814 63.3595C65.2814 64.4199 64.4218 65.2795 63.3614 65.2795C62.301 65.2795 61.4414 64.4199 61.4414 63.3595C61.4414 62.2991 62.301 61.4395 63.3614 61.4395Z" fill="white"/>
<path d="M67.2013 61.4395C68.2617 61.4395 69.1213 62.2991 69.1213 63.3595C69.1213 64.4199 68.2617 65.2795 67.2013 65.2795C66.1409 65.2795 65.2812 64.4199 65.2812 63.3595C65.2812 62.2991 66.1409 61.4395 67.2013 61.4395Z" fill="white"/>
<path d="M71.0411 61.4395C72.1015 61.4395 72.9611 62.2991 72.9611 63.3595C72.9611 64.4199 72.1015 65.2795 71.0411 65.2795C69.9807 65.2795 69.1211 64.4199 69.1211 63.3595C69.1211 62.2991 69.9807 61.4395 71.0411 61.4395Z" fill="white"/>
<path d="M74.8809 61.4395C75.9414 61.4395 76.8009 62.2991 76.8009 63.3595C76.8009 64.4199 75.9414 65.2795 74.8809 65.2795C73.8206 65.2795 72.9609 64.4199 72.9609 63.3595C72.9609 62.2991 73.8206 61.4395 74.8809 61.4395Z" fill="white"/>
<path d="M78.7208 61.4395C79.7812 61.4395 80.6408 62.2991 80.6408 63.3595C80.6408 64.4199 79.7812 65.2795 78.7208 65.2795C77.6604 65.2795 76.8008 64.4199 76.8008 63.3595C76.8008 62.2991 77.6604 61.4395 78.7208 61.4395Z" fill="white"/>
<path d="M86.4005 61.4395C87.4609 61.4395 88.3205 62.2991 88.3205 63.3595C88.3205 64.4199 87.4609 65.2795 86.4005 65.2795C85.3401 65.2795 84.4805 64.4199 84.4805 63.3595C84.4805 62.2991 85.3401 61.4395 86.4005 61.4395Z" fill="white"/>
<path d="M90.2403 61.4395C91.3007 61.4395 92.1603 62.2991 92.1603 63.3595C92.1603 64.4199 91.3007 65.2795 90.2403 65.2795C89.1799 65.2795 88.3203 64.4199 88.3203 63.3595C88.3203 62.2991 89.1799 61.4395 90.2403 61.4395Z" fill="white"/>
<path d="M32.6388 65.2812C33.6992 65.2812 34.5588 66.1409 34.5588 67.2013C34.5588 68.2617 33.6992 69.1213 32.6388 69.1213C31.5784 69.1213 30.7188 68.2617 30.7188 67.2013C30.7188 66.1409 31.5784 65.2812 32.6388 65.2812Z" fill="white"/>
<path d="M36.4786 65.2812C37.539 65.2812 38.3986 66.1409 38.3986 67.2013C38.3986 68.2617 37.539 69.1213 36.4786 69.1213C35.4182 69.1213 34.5586 68.2617 34.5586 67.2013C34.5586 66.1409 35.4182 65.2812 36.4786 65.2812Z" fill="white"/>
<path d="M44.1583 65.2812C45.2187 65.2812 46.0783 66.1409 46.0783 67.2013C46.0783 68.2617 45.2187 69.1213 44.1583 69.1213C43.0979 69.1213 42.2383 68.2617 42.2383 67.2013C42.2383 66.1409 43.0979 65.2812 44.1583 65.2812Z" fill="white"/>
<path d="M47.9981 65.2812C49.0586 65.2812 49.9181 66.1409 49.9181 67.2013C49.9181 68.2617 49.0586 69.1213 47.9981 69.1213C46.9377 69.1213 46.0781 68.2617 46.0781 67.2013C46.0781 66.1409 46.9377 65.2812 47.9981 65.2812Z" fill="white"/>
<path d="M51.838 65.2812C52.8984 65.2812 53.758 66.1409 53.758 67.2013C53.758 68.2617 52.8984 69.1213 51.838 69.1213C50.7776 69.1213 49.918 68.2617 49.918 67.2013C49.918 66.1409 50.7776 65.2812 51.838 65.2812Z" fill="white"/>
<path d="M63.3614 65.2812C64.4218 65.2812 65.2814 66.1409 65.2814 67.2013C65.2814 68.2617 64.4218 69.1213 63.3614 69.1213C62.301 69.1213 61.4414 68.2617 61.4414 67.2013C61.4414 66.1409 62.301 65.2812 63.3614 65.2812Z" fill="white"/>
<path d="M78.7208 65.2812C79.7812 65.2812 80.6408 66.1409 80.6408 67.2013C80.6408 68.2617 79.7812 69.1213 78.7208 69.1213C77.6604 69.1213 76.8008 68.2617 76.8008 67.2013C76.8008 66.1409 77.6604 65.2812 78.7208 65.2812Z" fill="white"/>
<path d="M86.4005 65.2812C87.4609 65.2812 88.3205 66.1409 88.3205 67.2013C88.3205 68.2617 87.4609 69.1213 86.4005 69.1213C85.3401 69.1213 84.4805 68.2617 84.4805 67.2013C84.4805 66.1409 85.3401 65.2812 86.4005 65.2812Z" fill="white"/>
<path d="M90.2403 65.2812C91.3007 65.2812 92.1603 66.1409 92.1603 67.2013C92.1603 68.2617 91.3007 69.1213 90.2403 69.1213C89.1799 69.1213 88.3203 68.2617 88.3203 67.2013C88.3203 66.1409 89.1799 65.2812 90.2403 65.2812Z" fill="white"/>
<path d="M32.6388 69.1191C33.6992 69.1191 34.5588 69.9788 34.5588 71.0391C34.5588 72.0996 33.6992 72.9591 32.6388 72.9591C31.5784 72.9591 30.7188 72.0996 30.7188 71.0391C30.7188 69.9788 31.5784 69.1191 32.6388 69.1191Z" fill="white"/>
<path d="M36.4786 69.1191C37.539 69.1191 38.3986 69.9788 38.3986 71.0391C38.3986 72.0996 37.539 72.9591 36.4786 72.9591C35.4182 72.9591 34.5586 72.0996 34.5586 71.0391C34.5586 69.9788 35.4182 69.1191 36.4786 69.1191Z" fill="white"/>
<path d="M40.3184 69.1191C41.3789 69.1191 42.2384 69.9788 42.2384 71.0391C42.2384 72.0996 41.3789 72.9591 40.3184 72.9591C39.2581 72.9591 38.3984 72.0996 38.3984 71.0391C38.3984 69.9788 39.2581 69.1191 40.3184 69.1191Z" fill="white"/>
<path d="M44.1583 69.1191C45.2187 69.1191 46.0783 69.9788 46.0783 71.0391C46.0783 72.0996 45.2187 72.9591 44.1583 72.9591C43.0979 72.9591 42.2383 72.0996 42.2383 71.0391C42.2383 69.9788 43.0979 69.1191 44.1583 69.1191Z" fill="white"/>
<path d="M63.3614 69.1191C64.4218 69.1191 65.2814 69.9788 65.2814 71.0391C65.2814 72.0996 64.4218 72.9591 63.3614 72.9591C62.301 72.9591 61.4414 72.0996 61.4414 71.0391C61.4414 69.9788 62.301 69.1191 63.3614 69.1191Z" fill="white"/>
<path d="M71.0411 69.1191C72.1015 69.1191 72.9611 69.9788 72.9611 71.0391C72.9611 72.0996 72.1015 72.9591 71.0411 72.9591C69.9807 72.9591 69.1211 72.0996 69.1211 71.0391C69.1211 69.9788 69.9807 69.1191 71.0411 69.1191Z" fill="white"/>
<path d="M78.7208 69.1191C79.7812 69.1191 80.6408 69.9788 80.6408 71.0391C80.6408 72.0996 79.7812 72.9591 78.7208 72.9591C77.6604 72.9591 76.8008 72.0996 76.8008 71.0391C76.8008 69.9788 77.6604 69.1191 78.7208 69.1191Z" fill="white"/>
<path d="M94.0802 69.1191C95.1406 69.1191 96.0002 69.9788 96.0002 71.0391C96.0002 72.0996 95.1406 72.9591 94.0802 72.9591C93.0198 72.9591 92.1602 72.0996 92.1602 71.0391C92.1602 69.9788 93.0198 69.1191 94.0802 69.1191Z" fill="white"/>
<path d="M32.6388 72.9609C33.6992 72.9609 34.5588 73.8206 34.5588 74.8809C34.5588 75.9414 33.6992 76.8009 32.6388 76.8009C31.5784 76.8009 30.7188 75.9414 30.7188 74.8809C30.7188 73.8206 31.5784 72.9609 32.6388 72.9609Z" fill="white"/>
<path d="M44.1583 72.9609C45.2187 72.9609 46.0783 73.8206 46.0783 74.8809C46.0783 75.9414 45.2187 76.8009 44.1583 76.8009C43.0979 76.8009 42.2383 75.9414 42.2383 74.8809C42.2383 73.8206 43.0979 72.9609 44.1583 72.9609Z" fill="white"/>
<path d="M51.838 72.9609C52.8984 72.9609 53.758 73.8206 53.758 74.8809C53.758 75.9414 52.8984 76.8009 51.838 76.8009C50.7776 76.8009 49.918 75.9414 49.918 74.8809C49.918 73.8206 50.7776 72.9609 51.838 72.9609Z" fill="white"/>
<path d="M55.6817 72.9609C56.7422 72.9609 57.6017 73.8206 57.6017 74.8809C57.6017 75.9414 56.7422 76.8009 55.6817 76.8009C54.6213 76.8009 53.7617 75.9414 53.7617 74.8809C53.7617 73.8206 54.6213 72.9609 55.6817 72.9609Z" fill="white"/>
<path d="M59.5216 72.9609C60.582 72.9609 61.4416 73.8206 61.4416 74.8809C61.4416 75.9414 60.582 76.8009 59.5216 76.8009C58.4612 76.8009 57.6016 75.9414 57.6016 74.8809C57.6016 73.8206 58.4612 72.9609 59.5216 72.9609Z" fill="white"/>
<path d="M63.3614 72.9609C64.4218 72.9609 65.2814 73.8206 65.2814 74.8809C65.2814 75.9414 64.4218 76.8009 63.3614 76.8009C62.301 76.8009 61.4414 75.9414 61.4414 74.8809C61.4414 73.8206 62.301 72.9609 63.3614 72.9609Z" fill="white"/>
<path d="M78.7208 72.9609C79.7812 72.9609 80.6408 73.8206 80.6408 74.8809C80.6408 75.9414 79.7812 76.8009 78.7208 76.8009C77.6604 76.8009 76.8008 75.9414 76.8008 74.8809C76.8008 73.8206 77.6604 72.9609 78.7208 72.9609Z" fill="white"/>
<path d="M90.2403 72.9609C91.3007 72.9609 92.1603 73.8206 92.1603 74.8809C92.1603 75.9414 91.3007 76.8009 90.2403 76.8009C89.1799 76.8009 88.3203 75.9414 88.3203 74.8809C88.3203 73.8206 89.1799 72.9609 90.2403 72.9609Z" fill="white"/>
<path d="M94.0802 72.9609C95.1406 72.9609 96.0002 73.8206 96.0002 74.8809C96.0002 75.9414 95.1406 76.8009 94.0802 76.8009C93.0198 76.8009 92.1602 75.9414 92.1602 74.8809C92.1602 73.8206 93.0198 72.9609 94.0802 72.9609Z" fill="white"/>
<path d="M32.6388 76.7988C33.6992 76.7988 34.5588 77.6585 34.5588 78.7188C34.5588 79.7793 33.6992 80.6388 32.6388 80.6388C31.5784 80.6388 30.7188 79.7793 30.7188 78.7188C30.7188 77.6585 31.5784 76.7988 32.6388 76.7988Z" fill="white"/>
<path d="M40.3184 76.7988C41.3789 76.7988 42.2384 77.6585 42.2384 78.7188C42.2384 79.7793 41.3789 80.6388 40.3184 80.6388C39.2581 80.6388 38.3984 79.7793 38.3984 78.7188C38.3984 77.6585 39.2581 76.7988 40.3184 76.7988Z" fill="white"/>
<path d="M44.1583 76.7988C45.2187 76.7988 46.0783 77.6585 46.0783 78.7188C46.0783 79.7793 45.2187 80.6388 44.1583 80.6388C43.0979 80.6388 42.2383 79.7793 42.2383 78.7188C42.2383 77.6585 43.0979 76.7988 44.1583 76.7988Z" fill="white"/>
<path d="M47.9981 76.7988C49.0586 76.7988 49.9181 77.6585 49.9181 78.7188C49.9181 79.7793 49.0586 80.6388 47.9981 80.6388C46.9377 80.6388 46.0781 79.7793 46.0781 78.7188C46.0781 77.6585 46.9377 76.7988 47.9981 76.7988Z" fill="white"/>
<path d="M55.6817 76.7988C56.7422 76.7988 57.6017 77.6585 57.6017 78.7188C57.6017 79.7793 56.7422 80.6388 55.6817 80.6388C54.6213 80.6388 53.7617 79.7793 53.7617 78.7188C53.7617 77.6585 54.6213 76.7988 55.6817 76.7988Z" fill="white"/>
<path d="M59.5216 76.7988C60.582 76.7988 61.4416 77.6585 61.4416 78.7188C61.4416 79.7793 60.582 80.6388 59.5216 80.6388C58.4612 80.6388 57.6016 79.7793 57.6016 78.7188C57.6016 77.6585 58.4612 76.7988 59.5216 76.7988Z" fill="white"/>
<path d="M63.3614 76.7988C64.4218 76.7988 65.2814 77.6585 65.2814 78.7188C65.2814 79.7793 64.4218 80.6388 63.3614 80.6388C62.301 80.6388 61.4414 79.7793 61.4414 78.7188C61.4414 77.6585 62.301 76.7988 63.3614 76.7988Z" fill="white"/>
<path d="M67.2013 76.7988C68.2617 76.7988 69.1213 77.6585 69.1213 78.7188C69.1213 79.7793 68.2617 80.6388 67.2013 80.6388C66.1409 80.6388 65.2812 79.7793 65.2812 78.7188C65.2812 77.6585 66.1409 76.7988 67.2013 76.7988Z" fill="white"/>
<path d="M71.0411 76.7988C72.1015 76.7988 72.9611 77.6585 72.9611 78.7188C72.9611 79.7793 72.1015 80.6388 71.0411 80.6388C69.9807 80.6388 69.1211 79.7793 69.1211 78.7188C69.1211 77.6585 69.9807 76.7988 71.0411 76.7988Z" fill="white"/>
<path d="M74.8809 76.7988C75.9414 76.7988 76.8009 77.6585 76.8009 78.7188C76.8009 79.7793 75.9414 80.6388 74.8809 80.6388C73.8206 80.6388 72.9609 79.7793 72.9609 78.7188C72.9609 77.6585 73.8206 76.7988 74.8809 76.7988Z" fill="white"/>
<path d="M78.7208 76.7988C79.7812 76.7988 80.6408 77.6585 80.6408 78.7188C80.6408 79.7793 79.7812 80.6388 78.7208 80.6388C77.6604 80.6388 76.8008 79.7793 76.8008 78.7188C76.8008 77.6585 77.6604 76.7988 78.7208 76.7988Z" fill="white"/>
<path d="M32.6388 80.6406C33.6992 80.6406 34.5588 81.5002 34.5588 82.5606C34.5588 83.6211 33.6992 84.4806 32.6388 84.4806C31.5784 84.4806 30.7188 83.6211 30.7188 82.5606C30.7188 81.5002 31.5784 80.6406 32.6388 80.6406Z" fill="white"/>
<path d="M44.1583 80.6406C45.2187 80.6406 46.0783 81.5002 46.0783 82.5606C46.0783 83.6211 45.2187 84.4806 44.1583 84.4806C43.0979 84.4806 42.2383 83.6211 42.2383 82.5606C42.2383 81.5002 43.0979 80.6406 44.1583 80.6406Z" fill="white"/>
<path d="M47.9981 80.6406C49.0586 80.6406 49.9181 81.5002 49.9181 82.5606C49.9181 83.6211 49.0586 84.4806 47.9981 84.4806C46.9377 84.4806 46.0781 83.6211 46.0781 82.5606C46.0781 81.5002 46.9377 80.6406 47.9981 80.6406Z" fill="white"/>
<path d="M59.5216 80.6406C60.582 80.6406 61.4416 81.5002 61.4416 82.5606C61.4416 83.6211 60.582 84.4806 59.5216 84.4806C58.4612 84.4806 57.6016 83.6211 57.6016 82.5606C57.6016 81.5002 58.4612 80.6406 59.5216 80.6406Z" fill="white"/>
<path d="M67.2013 80.6406C68.2617 80.6406 69.1213 81.5002 69.1213 82.5606C69.1213 83.6211 68.2617 84.4806 67.2013 84.4806C66.1409 84.4806 65.2812 83.6211 65.2812 82.5606C65.2812 81.5002 66.1409 80.6406 67.2013 80.6406Z" fill="white"/>
<path d="M71.0411 80.6406C72.1015 80.6406 72.9611 81.5002 72.9611 82.5606C72.9611 83.6211 72.1015 84.4806 71.0411 84.4806C69.9807 84.4806 69.1211 83.6211 69.1211 82.5606C69.1211 81.5002 69.9807 80.6406 71.0411 80.6406Z" fill="white"/>
<path d="M90.2403 80.6406C91.3007 80.6406 92.1603 81.5002 92.1603 82.5606C92.1603 83.6211 91.3007 84.4806 90.2403 84.4806C89.1799 84.4806 88.3203 83.6211 88.3203 82.5606C88.3203 81.5002 89.1799 80.6406 90.2403 80.6406Z" fill="white"/>
<path d="M94.0802 80.6406C95.1406 80.6406 96.0002 81.5002 96.0002 82.5606C96.0002 83.6211 95.1406 84.4806 94.0802 84.4806C93.0198 84.4806 92.1602 83.6211 92.1602 82.5606C92.1602 81.5002 93.0198 80.6406 94.0802 80.6406Z" fill="white"/>
<path d="M36.4786 84.4805C37.539 84.4805 38.3986 85.3401 38.3986 86.4005C38.3986 87.4609 37.539 88.3205 36.4786 88.3205C35.4182 88.3205 34.5586 87.4609 34.5586 86.4005C34.5586 85.3401 35.4182 84.4805 36.4786 84.4805Z" fill="white"/>
<path d="M40.3184 84.4805C41.3789 84.4805 42.2384 85.3401 42.2384 86.4005C42.2384 87.4609 41.3789 88.3205 40.3184 88.3205C39.2581 88.3205 38.3984 87.4609 38.3984 86.4005C38.3984 85.3401 39.2581 84.4805 40.3184 84.4805Z" fill="white"/>
<path d="M44.1583 84.4805C45.2187 84.4805 46.0783 85.3401 46.0783 86.4005C46.0783 87.4609 45.2187 88.3205 44.1583 88.3205C43.0979 88.3205 42.2383 87.4609 42.2383 86.4005C42.2383 85.3401 43.0979 84.4805 44.1583 84.4805Z" fill="white"/>
<path d="M51.838 84.4805C52.8984 84.4805 53.758 85.3401 53.758 86.4005C53.758 87.4609 52.8984 88.3205 51.838 88.3205C50.7776 88.3205 49.918 87.4609 49.918 86.4005C49.918 85.3401 50.7776 84.4805 51.838 84.4805Z" fill="white"/>
<path d="M55.6817 84.4805C56.7422 84.4805 57.6017 85.3401 57.6017 86.4005C57.6017 87.4609 56.7422 88.3205 55.6817 88.3205C54.6213 88.3205 53.7617 87.4609 53.7617 86.4005C53.7617 85.3401 54.6213 84.4805 55.6817 84.4805Z" fill="white"/>
<path d="M67.2013 84.4805C68.2617 84.4805 69.1213 85.3401 69.1213 86.4005C69.1213 87.4609 68.2617 88.3205 67.2013 88.3205C66.1409 88.3205 65.2812 87.4609 65.2812 86.4005C65.2812 85.3401 66.1409 84.4805 67.2013 84.4805Z" fill="white"/>
<path d="M78.7208 84.4805C79.7812 84.4805 80.6408 85.3401 80.6408 86.4005C80.6408 87.4609 79.7812 88.3205 78.7208 88.3205C77.6604 88.3205 76.8008 87.4609 76.8008 86.4005C76.8008 85.3401 77.6604 84.4805 78.7208 84.4805Z" fill="white"/>
<path d="M82.5606 84.4805C83.6211 84.4805 84.4806 85.3401 84.4806 86.4005C84.4806 87.4609 83.6211 88.3205 82.5606 88.3205C81.5002 88.3205 80.6406 87.4609 80.6406 86.4005C80.6406 85.3401 81.5002 84.4805 82.5606 84.4805Z" fill="white"/>
<path d="M86.4005 84.4805C87.4609 84.4805 88.3205 85.3401 88.3205 86.4005C88.3205 87.4609 87.4609 88.3205 86.4005 88.3205C85.3401 88.3205 84.4805 87.4609 84.4805 86.4005C84.4805 85.3401 85.3401 84.4805 86.4005 84.4805Z" fill="white"/>
<path d="M90.2403 84.4805C91.3007 84.4805 92.1603 85.3401 92.1603 86.4005C92.1603 87.4609 91.3007 88.3205 90.2403 88.3205C89.1799 88.3205 88.3203 87.4609 88.3203 86.4005C88.3203 85.3401 89.1799 84.4805 90.2403 84.4805Z" fill="white"/>
<path d="M94.0802 84.4805C95.1406 84.4805 96.0002 85.3401 96.0002 86.4005C96.0002 87.4609 95.1406 88.3205 94.0802 88.3205C93.0198 88.3205 92.1602 87.4609 92.1602 86.4005C92.1602 85.3401 93.0198 84.4805 94.0802 84.4805Z" fill="white"/>
<path d="M36.4786 88.3203C37.539 88.3203 38.3986 89.1799 38.3986 90.2403C38.3986 91.3007 37.539 92.1603 36.4786 92.1603C35.4182 92.1603 34.5586 91.3007 34.5586 90.2403C34.5586 89.1799 35.4182 88.3203 36.4786 88.3203Z" fill="white"/>
<path d="M44.1583 88.3203C45.2187 88.3203 46.0783 89.1799 46.0783 90.2403C46.0783 91.3007 45.2187 92.1603 44.1583 92.1603C43.0979 92.1603 42.2383 91.3007 42.2383 90.2403C42.2383 89.1799 43.0979 88.3203 44.1583 88.3203Z" fill="white"/>
<path d="M67.2013 88.3203C68.2617 88.3203 69.1213 89.1799 69.1213 90.2403C69.1213 91.3007 68.2617 92.1603 67.2013 92.1603C66.1409 92.1603 65.2812 91.3007 65.2812 90.2403C65.2812 89.1799 66.1409 88.3203 67.2013 88.3203Z" fill="white"/>
<path d="M71.0411 88.3203C72.1015 88.3203 72.9611 89.1799 72.9611 90.2403C72.9611 91.3007 72.1015 92.1603 71.0411 92.1603C69.9807 92.1603 69.1211 91.3007 69.1211 90.2403C69.1211 89.1799 69.9807 88.3203 71.0411 88.3203Z" fill="white"/>
<path d="M74.8809 88.3203C75.9414 88.3203 76.8009 89.1799 76.8009 90.2403C76.8009 91.3007 75.9414 92.1603 74.8809 92.1603C73.8206 92.1603 72.9609 91.3007 72.9609 90.2403C72.9609 89.1799 73.8206 88.3203 74.8809 88.3203Z" fill="white"/>
<path d="M78.7208 88.3203C79.7812 88.3203 80.6408 89.1799 80.6408 90.2403C80.6408 91.3007 79.7812 92.1603 78.7208 92.1603C77.6604 92.1603 76.8008 91.3007 76.8008 90.2403C76.8008 89.1799 77.6604 88.3203 78.7208 88.3203Z" fill="white"/>
<path d="M86.4005 88.3203C87.4609 88.3203 88.3205 89.1799 88.3205 90.2403C88.3205 91.3007 87.4609 92.1603 86.4005 92.1603C85.3401 92.1603 84.4805 91.3007 84.4805 90.2403C84.4805 89.1799 85.3401 88.3203 86.4005 88.3203Z" fill="white"/>
<path d="M90.2403 88.3203C91.3007 88.3203 92.1603 89.1799 92.1603 90.2403C92.1603 91.3007 91.3007 92.1603 90.2403 92.1603C89.1799 92.1603 88.3203 91.3007 88.3203 90.2403C88.3203 89.1799 89.1799 88.3203 90.2403 88.3203Z" fill="white"/>
<path d="M94.0802 88.3203C95.1406 88.3203 96.0002 89.1799 96.0002 90.2403C96.0002 91.3007 95.1406 92.1603 94.0802 92.1603C93.0198 92.1603 92.1602 91.3007 92.1602 90.2403C92.1602 89.1799 93.0198 88.3203 94.0802 88.3203Z" fill="white"/>
<path d="M32.6388 92.1602C33.6992 92.1602 34.5588 93.0198 34.5588 94.0802C34.5588 95.1406 33.6992 96.0002 32.6388 96.0002C31.5784 96.0002 30.7188 95.1406 30.7188 94.0802C30.7188 93.0198 31.5784 92.1602 32.6388 92.1602Z" fill="white"/>
<path d="M36.4786 92.1602C37.539 92.1602 38.3986 93.0198 38.3986 94.0802C38.3986 95.1406 37.539 96.0002 36.4786 96.0002C35.4182 96.0002 34.5586 95.1406 34.5586 94.0802C34.5586 93.0198 35.4182 92.1602 36.4786 92.1602Z" fill="white"/>
<path d="M40.3184 92.1602C41.3789 92.1602 42.2384 93.0198 42.2384 94.0802C42.2384 95.1406 41.3789 96.0002 40.3184 96.0002C39.2581 96.0002 38.3984 95.1406 38.3984 94.0802C38.3984 93.0198 39.2581 92.1602 40.3184 92.1602Z" fill="white"/>
<path d="M44.1583 92.1602C45.2187 92.1602 46.0783 93.0198 46.0783 94.0802C46.0783 95.1406 45.2187 96.0002 44.1583 96.0002C43.0979 96.0002 42.2383 95.1406 42.2383 94.0802C42.2383 93.0198 43.0979 92.1602 44.1583 92.1602Z" fill="white"/>
<path d="M63.3614 92.1602C64.4218 92.1602 65.2814 93.0198 65.2814 94.0802C65.2814 95.1406 64.4218 96.0002 63.3614 96.0002C62.301 96.0002 61.4414 95.1406 61.4414 94.0802C61.4414 93.0198 62.301 92.1602 63.3614 92.1602Z" fill="white"/>
<path d="M71.0411 92.1602C72.1015 92.1602 72.9611 93.0198 72.9611 94.0802C72.9611 95.1406 72.1015 96.0002 71.0411 96.0002C69.9807 96.0002 69.1211 95.1406 69.1211 94.0802C69.1211 93.0198 69.9807 92.1602 71.0411 92.1602Z" fill="white"/>
<path d="M82.5606 92.1602C83.6211 92.1602 84.4806 93.0198 84.4806 94.0802C84.4806 95.1406 83.6211 96.0002 82.5606 96.0002C81.5002 96.0002 80.6406 95.1406 80.6406 94.0802C80.6406 93.0198 81.5002 92.1602 82.5606 92.1602Z" fill="white"/>
<path d="M94.0802 92.1602C95.1406 92.1602 96.0002 93.0198 96.0002 94.0802C96.0002 95.1406 95.1406 96.0002 94.0802 96.0002C93.0198 96.0002 92.1602 95.1406 92.1602 94.0802C92.1602 93.0198 93.0198 92.1602 94.0802 92.1602Z" fill="white"/>
<path d="M26.6139 5.76643C26.6139 4.89243 26.0515 4.1515 25.2691 3.88137C26.0515 3.6107 26.6139 2.87004 26.6139 1.99604C26.6139 0.893161 25.7204 0 24.6178 0C23.7438 0 23.0034 0.562085 22.7328 1.34427C22.4621 0.562085 21.7217 0 20.8477 0C19.9734 0 19.2328 0.562617 18.9624 1.34506C18.692 0.562617 17.9513 0 17.0771 0C16.2031 0 15.4627 0.562085 15.192 1.34427C14.9213 0.562085 14.1809 0 13.3069 0C12.4329 0 11.692 0.562085 11.4219 1.34453C11.1512 0.562085 10.4105 0 9.53655 0C8.66255 0 7.92188 0.562085 7.65149 1.34427C7.38109 0.562085 6.64043 0 5.76643 0C4.89243 0 4.1515 0.562617 3.88137 1.3448C3.61097 0.562617 2.87004 0 1.99604 0C0.893427 0 0 0.893161 0 1.99604C0 2.87004 0.562617 3.6107 1.3448 3.8811C0.562617 4.1515 0 4.89243 0 5.76643C0 6.64043 0.562351 7.38082 1.34427 7.65149C0.562351 7.92188 0 8.66255 0 9.53655C0 10.4105 0.562351 11.1509 1.34453 11.4216C0.562351 11.692 0 12.4327 0 13.3069C0 14.1812 0.562351 14.9219 1.34427 15.1917C0.562351 15.4627 0 16.2028 0 17.0771C0 17.9513 0.562617 18.692 1.34506 18.9624C0.562617 19.2328 0 19.9734 0 20.8477C0 21.7214 0.562351 22.4621 1.34427 22.7325C0.562351 23.0034 0 23.7436 0 24.6178C0 25.7204 0.893427 26.6139 1.99604 26.6139C2.1339 26.6139 2.2683 26.5998 2.39844 26.5734C3.09253 26.4316 3.65355 25.9278 3.88137 25.2699C4.1515 26.0518 4.89243 26.6141 5.76643 26.6141C6.64043 26.6141 7.38109 26.0523 7.65149 25.2699C7.92188 26.0518 8.66255 26.6141 9.53655 26.6141C10.4105 26.6141 11.1512 26.0523 11.4216 25.2699C11.692 26.0515 12.4327 26.6139 13.3069 26.6139C14.1812 26.6139 14.9219 26.0515 15.192 25.2691C15.4627 26.051 16.2031 26.6139 17.0771 26.6139C17.9513 26.6139 18.692 26.051 18.9624 25.2685C19.2328 26.0507 19.9734 26.6139 20.8477 26.6139C21.7217 26.6139 22.4621 26.0515 22.7328 25.2691C23.0034 26.0515 23.7438 26.6139 24.6178 26.6139C25.7204 26.6139 26.6139 25.7204 26.6139 24.6178C26.6139 23.7436 26.0515 23.0034 25.2693 22.7325C26.0515 22.4621 26.6139 21.7214 26.6139 20.8477C26.6139 19.9734 26.0515 19.2328 25.2685 18.9624C26.0507 18.692 26.6139 17.9513 26.6139 17.0771C26.6139 16.2028 26.0515 15.4627 25.2693 15.1917C26.0515 14.9213 26.6139 14.1807 26.6139 13.3069C26.6139 12.4329 26.0515 11.692 25.2693 11.4219C26.0512 11.1509 26.6139 10.4105 26.6139 9.53655C26.6139 8.66255 26.0515 7.92188 25.2693 7.65149C26.0515 7.38082 26.6139 6.64043 26.6139 5.76643ZM23.9663 22.7325C23.3888 22.9321 22.9324 23.3885 22.7328 23.9661C22.4621 23.1841 21.7217 22.6218 20.8477 22.6218C19.9734 22.6218 19.2328 23.1841 18.9624 23.9671C18.692 23.1841 17.9513 22.6218 17.0771 22.6218C16.2031 22.6218 15.4627 23.1841 15.192 23.9661C14.9213 23.1841 14.1809 22.6218 13.3069 22.6218C12.4329 22.6218 11.692 23.1841 11.4219 23.9661C11.1512 23.1841 10.4105 22.6218 9.53655 22.6218C8.66255 22.6218 7.92188 23.1841 7.65149 23.9661C7.38109 23.1841 6.64043 22.6218 5.76643 22.6218C4.89243 22.6218 4.1515 23.1841 3.88137 23.9661C3.68176 23.3885 3.22533 22.9321 2.64781 22.7325C3.42973 22.4621 3.99208 21.7214 3.99208 20.8477C3.99208 19.9734 3.4292 19.2328 2.64675 18.9624C3.42946 18.692 3.99208 17.9513 3.99208 17.0771C3.99208 16.2028 3.42946 15.4627 2.64755 15.1917C3.42973 14.9213 3.99208 14.1807 3.99208 13.3069C3.99208 12.4329 3.42973 11.692 2.64755 11.4219C3.42973 11.1509 3.99208 10.4105 3.99208 9.53655C3.99208 8.66255 3.42973 7.92188 2.64781 7.65149C3.42973 7.38082 3.99208 6.64043 3.99208 5.76643C3.99208 4.89243 3.42946 4.1515 2.64728 3.88137C3.22507 3.68176 3.6815 3.22533 3.8811 2.64755C4.1515 3.42946 4.89243 3.99208 5.76643 3.99208C6.64043 3.99208 7.38109 3.42973 7.65149 2.64781C7.92188 3.42973 8.66255 3.99208 9.53655 3.99208C10.4105 3.99208 11.1512 3.42973 11.4216 2.64755C11.692 3.42973 12.4327 3.99208 13.3069 3.99208C14.1812 3.99208 14.9219 3.42973 15.192 2.64781C15.4627 3.42973 16.2031 3.99208 17.0771 3.99208C17.9513 3.99208 18.692 3.42946 18.9624 2.64675C19.2328 3.42946 19.9734 3.99208 20.8477 3.99208C21.7217 3.99208 22.4621 3.42973 22.7328 2.64781C22.9324 3.22533 23.3888 3.68176 23.9666 3.88137C23.1841 4.1515 22.6218 4.89243 22.6218 5.76643C22.6218 6.64043 23.1841 7.38082 23.9663 7.65149C23.1841 7.92188 22.6218 8.66255 22.6218 9.53655C22.6218 10.4105 23.1841 11.1509 23.9663 11.4216C23.1841 11.692 22.6218 12.4327 22.6218 13.3069C22.6218 14.1812 23.1841 14.9219 23.9663 15.1917C23.1841 15.4627 22.6218 16.2028 22.6218 17.0771C22.6218 17.9513 23.1841 18.692 23.9671 18.9624C23.1841 19.2328 22.6218 19.9734 22.6218 20.8477C22.6218 21.7214 23.1841 22.4621 23.9663 22.7325Z" fill="white"/>
<path d="M95.735 5.76643C95.735 4.89243 95.1726 4.1515 94.3902 3.88137C95.1726 3.6107 95.735 2.87004 95.735 1.99604C95.735 0.893161 94.8415 0 93.7389 0C92.8649 0 92.1245 0.562085 91.8539 1.34427C91.5832 0.562085 90.8428 0 89.9688 0C89.0945 0 88.3539 0.562617 88.0835 1.34506C87.8131 0.562617 87.0724 0 86.1981 0C85.3241 0 84.5837 0.562085 84.3131 1.34427C84.0424 0.562085 83.302 0 82.428 0C81.554 0 80.8131 0.562085 80.543 1.34453C80.2723 0.562085 79.5316 0 78.6576 0C77.7836 0 77.043 0.562085 76.7726 1.34427C76.5022 0.562085 75.7615 0 74.8875 0C74.0135 0 73.2726 0.562617 73.0025 1.3448C72.7321 0.562617 71.9911 0 71.1171 0C70.0145 0 69.1211 0.893161 69.1211 1.99604C69.1211 2.87004 69.6837 3.6107 70.4659 3.8811C69.6837 4.1515 69.1211 4.89243 69.1211 5.76643C69.1211 6.64043 69.6834 7.38082 70.4654 7.65149C69.6834 7.92188 69.1211 8.66255 69.1211 9.53655C69.1211 10.4105 69.6834 11.1509 70.4656 11.4216C69.6834 11.692 69.1211 12.4327 69.1211 13.3069C69.1211 14.1812 69.6834 14.9219 70.4654 15.1917C69.6834 15.4627 69.1211 16.2028 69.1211 17.0771C69.1211 17.9513 69.6837 18.692 70.4662 18.9624C69.6837 19.2328 69.1211 19.9734 69.1211 20.8477C69.1211 21.7214 69.6834 22.4621 70.4654 22.7325C69.6834 23.0034 69.1211 23.7436 69.1211 24.6178C69.1211 25.7204 70.0145 26.6139 71.1171 26.6139C71.255 26.6139 71.3894 26.5998 71.5195 26.5734C72.2136 26.4316 72.7746 25.9278 73.0025 25.2699C73.2726 26.0518 74.0135 26.6141 74.8875 26.6141C75.7615 26.6141 76.5022 26.0523 76.7726 25.2699C77.043 26.0518 77.7836 26.6141 78.6576 26.6141C79.5316 26.6141 80.2723 26.0523 80.5427 25.2699C80.8131 26.0515 81.5538 26.6139 82.428 26.6139C83.3023 26.6139 84.043 26.0515 84.3131 25.2691C84.5837 26.051 85.3241 26.6139 86.1981 26.6139C87.0724 26.6139 87.8131 26.051 88.0835 25.2685C88.3539 26.0507 89.0945 26.6139 89.9688 26.6139C90.8428 26.6139 91.5832 26.0515 91.8539 25.2691C92.1245 26.0515 92.8649 26.6139 93.7389 26.6139C94.8415 26.6139 95.735 25.7204 95.735 24.6178C95.735 23.7436 95.1726 23.0034 94.3904 22.7325C95.1726 22.4621 95.735 21.7214 95.735 20.8477C95.735 19.9734 95.1726 19.2328 94.3896 18.9624C95.1718 18.692 95.735 17.9513 95.735 17.0771C95.735 16.2028 95.1726 15.4627 94.3904 15.1917C95.1726 14.9213 95.735 14.1807 95.735 13.3069C95.735 12.4329 95.1726 11.692 94.3904 11.4219C95.1723 11.1509 95.735 10.4105 95.735 9.53655C95.735 8.66255 95.1726 7.92188 94.3904 7.65149C95.1726 7.38082 95.735 6.64043 95.735 5.76643ZM93.0874 22.7325C92.5099 22.9321 92.0535 23.3885 91.8539 23.9661C91.5832 23.1841 90.8428 22.6218 89.9688 22.6218C89.0945 22.6218 88.3539 23.1841 88.0835 23.9671C87.8131 23.1841 87.0724 22.6218 86.1981 22.6218C85.3241 22.6218 84.5837 23.1841 84.3131 23.9661C84.0424 23.1841 83.302 22.6218 82.428 22.6218C81.554 22.6218 80.8131 23.1841 80.543 23.9661C80.2723 23.1841 79.5316 22.6218 78.6576 22.6218C77.7836 22.6218 77.043 23.1841 76.7726 23.9661C76.5022 23.1841 75.7615 22.6218 74.8875 22.6218C74.0135 22.6218 73.2726 23.1841 73.0025 23.9661C72.8029 23.3885 72.3464 22.9321 71.7689 22.7325C72.5508 22.4621 73.1132 21.7214 73.1132 20.8477C73.1132 19.9734 72.5503 19.2328 71.7678 18.9624C72.5506 18.692 73.1132 17.9513 73.1132 17.0771C73.1132 16.2028 72.5506 15.4627 71.7686 15.1917C72.5508 14.9213 73.1132 14.1807 73.1132 13.3069C73.1132 12.4329 72.5508 11.692 71.7686 11.4219C72.5508 11.1509 73.1132 10.4105 73.1132 9.53655C73.1132 8.66255 72.5508 7.92188 71.7689 7.65149C72.5508 7.38082 73.1132 6.64043 73.1132 5.76643C73.1132 4.89243 72.5506 4.1515 71.7684 3.88137C72.3462 3.68176 72.8026 3.22533 73.0022 2.64755C73.2726 3.42946 74.0135 3.99208 74.8875 3.99208C75.7615 3.99208 76.5022 3.42973 76.7726 2.64781C77.043 3.42973 77.7836 3.99208 78.6576 3.99208C79.5316 3.99208 80.2723 3.42973 80.5427 2.64755C80.8131 3.42973 81.5538 3.99208 82.428 3.99208C83.3023 3.99208 84.043 3.42973 84.3131 2.64781C84.5837 3.42973 85.3241 3.99208 86.1981 3.99208C87.0724 3.99208 87.8131 3.42946 88.0835 2.64675C88.3539 3.42946 89.0945 3.99208 89.9688 3.99208C90.8428 3.99208 91.5832 3.42973 91.8539 2.64781C92.0535 3.22533 92.5099 3.68176 93.0877 3.88137C92.3052 4.1515 91.7429 4.89243 91.7429 5.76643C91.7429 6.64043 92.3052 7.38082 93.0874 7.65149C92.3052 7.92188 91.7429 8.66255 91.7429 9.53655C91.7429 10.4105 92.3052 11.1509 93.0874 11.4216C92.3052 11.692 91.7429 12.4327 91.7429 13.3069C91.7429 14.1812 92.3052 14.9219 93.0874 15.1917C92.3052 15.4627 91.7429 16.2028 91.7429 17.0771C91.7429 17.9513 92.3052 18.692 93.0882 18.9624C92.3052 19.2328 91.7429 19.9734 91.7429 20.8477C91.7429 21.7214 92.3052 22.4621 93.0874 22.7325Z" fill="white"/>
<path d="M26.6139 74.8856C26.6139 74.0116 26.0515 73.2706 25.2691 73.0005C26.0515 72.7298 26.6139 71.9892 26.6139 71.1152C26.6139 70.0123 25.7204 69.1191 24.6178 69.1191C23.7438 69.1191 23.0034 69.6812 22.7328 70.4634C22.4621 69.6812 21.7217 69.1191 20.8477 69.1191C19.9734 69.1191 19.2328 69.6818 18.9624 70.4642C18.692 69.6818 17.9513 69.1191 17.0771 69.1191C16.2031 69.1191 15.4627 69.6812 15.192 70.4634C14.9213 69.6812 14.1809 69.1191 13.3069 69.1191C12.4329 69.1191 11.692 69.6812 11.4219 70.4637C11.1512 69.6812 10.4105 69.1191 9.53655 69.1191C8.66255 69.1191 7.92188 69.6812 7.65149 70.4634C7.38109 69.6812 6.64043 69.1191 5.76643 69.1191C4.89243 69.1191 4.1515 69.6818 3.88137 70.4639C3.61097 69.6818 2.87004 69.1191 1.99604 69.1191C0.893427 69.1191 0 70.0123 0 71.1152C0 71.9892 0.562617 72.7298 1.3448 73.0002C0.562617 73.2706 0 74.0116 0 74.8856C0 75.7596 0.562351 76.5 1.34427 76.7706C0.562351 77.041 0 77.7817 0 78.6557C0 79.5297 0.562351 80.2701 1.34453 80.5407C0.562351 80.8111 0 81.5518 0 82.4261C0 83.3003 0.562351 84.041 1.34427 84.3109C0.562351 84.5818 0 85.3219 0 86.1962C0 87.0705 0.562617 87.8111 1.34506 88.0815C0.562617 88.3519 0 89.0926 0 89.9668C0 90.8406 0.562351 91.5812 1.34427 91.8516C0.562351 92.1226 0 92.8627 0 93.737C0 94.8396 0.893427 95.733 1.99604 95.733C2.1339 95.733 2.2683 95.7189 2.39844 95.6926C3.09253 95.5507 3.65355 95.0469 3.88137 94.389C4.1515 95.1709 4.89243 95.7333 5.76643 95.7333C6.64043 95.7333 7.38109 95.1715 7.65149 94.389C7.92188 95.1709 8.66255 95.7333 9.53655 95.7333C10.4105 95.7333 11.1512 95.1715 11.4216 94.389C11.692 95.1707 12.4327 95.733 13.3069 95.733C14.1812 95.733 14.9219 95.1707 15.192 94.3882C15.4627 95.1701 16.2031 95.733 17.0771 95.733C17.9513 95.733 18.692 95.1701 18.9624 94.3877C19.2328 95.1699 19.9734 95.733 20.8477 95.733C21.7217 95.733 22.4621 95.1707 22.7328 94.3882C23.0034 95.1707 23.7438 95.733 24.6178 95.733C25.7204 95.733 26.6139 94.8396 26.6139 93.737C26.6139 92.8627 26.0515 92.1226 25.2693 91.8516C26.0515 91.5812 26.6139 90.8406 26.6139 89.9668C26.6139 89.0926 26.0515 88.3519 25.2685 88.0815C26.0507 87.8111 26.6139 87.0705 26.6139 86.1962C26.6139 85.3219 26.0515 84.5818 25.2693 84.3109C26.0515 84.0405 26.6139 83.2998 26.6139 82.4261C26.6139 81.5521 26.0515 80.8111 25.2693 80.541C26.0512 80.2701 26.6139 79.5297 26.6139 78.6557C26.6139 77.7817 26.0515 77.041 25.2693 76.7706C26.0515 76.5 26.6139 75.7596 26.6139 74.8856ZM23.9663 91.8516C23.3888 92.0512 22.9324 92.5077 22.7328 93.0852C22.4621 92.3033 21.7217 91.7409 20.8477 91.7409C19.9734 91.7409 19.2328 92.3033 18.9624 93.0863C18.692 92.3033 17.9513 91.7409 17.0771 91.7409C16.2031 91.7409 15.4627 92.3033 15.192 93.0852C14.9213 92.3033 14.1809 91.7409 13.3069 91.7409C12.4329 91.7409 11.692 92.3033 11.4219 93.0852C11.1512 92.3033 10.4105 91.7409 9.53655 91.7409C8.66255 91.7409 7.92188 92.3033 7.65149 93.0852C7.38109 92.3033 6.64043 91.7409 5.76643 91.7409C4.89243 91.7409 4.1515 92.3033 3.88137 93.0852C3.68176 92.5077 3.22533 92.0512 2.64781 91.8516C3.42973 91.5812 3.99208 90.8406 3.99208 89.9668C3.99208 89.0926 3.4292 88.3519 2.64675 88.0815C3.42946 87.8111 3.99208 87.0705 3.99208 86.1962C3.99208 85.3219 3.42946 84.5818 2.64755 84.3109C3.42973 84.0405 3.99208 83.2998 3.99208 82.4261C3.99208 81.5521 3.42973 80.8111 2.64755 80.541C3.42973 80.2701 3.99208 79.5297 3.99208 78.6557C3.99208 77.7817 3.42973 77.041 2.64781 76.7706C3.42973 76.5 3.99208 75.7596 3.99208 74.8856C3.99208 74.0116 3.42946 73.2706 2.64728 73.0005C3.22507 72.8009 3.6815 72.3445 3.8811 71.7667C4.1515 72.5486 4.89243 73.1112 5.76643 73.1112C6.64043 73.1112 7.38109 72.5489 7.65149 71.767C7.92188 72.5489 8.66255 73.1112 9.53655 73.1112C10.4105 73.1112 11.1512 72.5489 11.4216 71.7667C11.692 72.5489 12.4327 73.1112 13.3069 73.1112C14.1812 73.1112 14.9219 72.5489 15.192 71.767C15.4627 72.5489 16.2031 73.1112 17.0771 73.1112C17.9513 73.1112 18.692 72.5486 18.9624 71.7659C19.2328 72.5486 19.9734 73.1112 20.8477 73.1112C21.7217 73.1112 22.4621 72.5489 22.7328 71.767C22.9324 72.3445 23.3888 72.8009 23.9666 73.0005C23.1841 73.2706 22.6218 74.0116 22.6218 74.8856C22.6218 75.7596 23.1841 76.5 23.9663 76.7706C23.1841 77.041 22.6218 77.7817 22.6218 78.6557C22.6218 79.5297 23.1841 80.2701 23.9663 80.5407C23.1841 80.8111 22.6218 81.5518 22.6218 82.4261C22.6218 83.3003 23.1841 84.041 23.9663 84.3109C23.1841 84.5818 22.6218 85.3219 22.6218 86.1962C22.6218 87.0705 23.1841 87.8111 23.9671 88.0815C23.1841 88.3519 22.6218 89.0926 22.6218 89.9668C22.6218 90.8406 23.1841 91.5812 23.9663 91.8516Z" fill="white"/>
<path d="M9.6771 11.6159C10.7479 11.6159 11.6159 10.7479 11.6159 9.6771C11.6159 8.60632 10.7479 7.73828 9.6771 7.73828C8.60632 7.73828 7.73828 8.60632 7.73828 9.6771C7.73828 10.7479 8.60632 11.6159 9.6771 11.6159Z" fill="white"/>
<path d="M13.4388 11.6159C14.5096 11.6159 15.3776 10.7479 15.3776 9.6771C15.3776 8.60632 14.5096 7.73828 13.4388 7.73828C12.368 7.73828 11.5 8.60632 11.5 9.6771C11.5 10.7479 12.368 11.6159 13.4388 11.6159Z" fill="white"/>
<path d="M17.2044 11.6159C18.2752 11.6159 19.1433 10.7479 19.1433 9.6771C19.1433 8.60632 18.2752 7.73828 17.2044 7.73828C16.1337 7.73828 15.2656 8.60632 15.2656 9.6771C15.2656 10.7479 16.1337 11.6159 17.2044 11.6159Z" fill="white"/>
<path d="M9.6771 19.1433C10.7479 19.1433 11.6159 18.2752 11.6159 17.2044C11.6159 16.1337 10.7479 15.2656 9.6771 15.2656C8.60632 15.2656 7.73828 16.1337 7.73828 17.2044C7.73828 18.2752 8.60632 19.1433 9.6771 19.1433Z" fill="white"/>
<path d="M13.4388 19.1433C14.5096 19.1433 15.3776 18.2752 15.3776 17.2044C15.3776 16.1337 14.5096 15.2656 13.4388 15.2656C12.368 15.2656 11.5 16.1337 11.5 17.2044C11.5 18.2752 12.368 19.1433 13.4388 19.1433Z" fill="white"/>
<path d="M17.2044 19.1433C18.2752 19.1433 19.1433 18.2752 19.1433 17.2044C19.1433 16.1337 18.2752 15.2656 17.2044 15.2656C16.1337 15.2656 15.2656 16.1337 15.2656 17.2044C15.2656 18.2752 16.1337 19.1433 17.2044 19.1433Z" fill="white"/>
<path d="M9.6771 15.3796C10.7479 15.3796 11.6159 14.5115 11.6159 13.4408C11.6159 12.37 10.7479 11.502 9.6771 11.502C8.60632 11.502 7.73828 12.37 7.73828 13.4408C7.73828 14.5115 8.60632 15.3796 9.6771 15.3796Z" fill="white"/>
<path d="M13.4388 15.3796C14.5096 15.3796 15.3776 14.5115 15.3776 13.4408C15.3776 12.37 14.5096 11.502 13.4388 11.502C12.368 11.502 11.5 12.37 11.5 13.4408C11.5 14.5115 12.368 15.3796 13.4388 15.3796Z" fill="white"/>
<path d="M17.2044 15.3796C18.2752 15.3796 19.1433 14.5115 19.1433 13.4408C19.1433 12.37 18.2752 11.502 17.2044 11.502C16.1337 11.502 15.2656 12.37 15.2656 13.4408C15.2656 14.5115 16.1337 15.3796 17.2044 15.3796Z" fill="white"/>
<path d="M78.7982 11.6159C79.869 11.6159 80.737 10.7479 80.737 9.6771C80.737 8.60632 79.869 7.73828 78.7982 7.73828C77.7274 7.73828 76.8594 8.60632 76.8594 9.6771C76.8594 10.7479 77.7274 11.6159 78.7982 11.6159Z" fill="white"/>
<path d="M82.5638 11.6159C83.6346 11.6159 84.5026 10.7479 84.5026 9.6771C84.5026 8.60632 83.6346 7.73828 82.5638 7.73828C81.493 7.73828 80.625 8.60632 80.625 9.6771C80.625 10.7479 81.493 11.6159 82.5638 11.6159Z" fill="white"/>
<path d="M86.3255 11.6159C87.3963 11.6159 88.2644 10.7479 88.2644 9.6771C88.2644 8.60632 87.3963 7.73828 86.3255 7.73828C85.2548 7.73828 84.3867 8.60632 84.3867 9.6771C84.3867 10.7479 85.2548 11.6159 86.3255 11.6159Z" fill="white"/>
<path d="M78.7982 19.1433C79.869 19.1433 80.737 18.2752 80.737 17.2044C80.737 16.1337 79.869 15.2656 78.7982 15.2656C77.7274 15.2656 76.8594 16.1337 76.8594 17.2044C76.8594 18.2752 77.7274 19.1433 78.7982 19.1433Z" fill="white"/>
<path d="M82.5638 19.1433C83.6346 19.1433 84.5026 18.2752 84.5026 17.2044C84.5026 16.1337 83.6346 15.2656 82.5638 15.2656C81.493 15.2656 80.625 16.1337 80.625 17.2044C80.625 18.2752 81.493 19.1433 82.5638 19.1433Z" fill="white"/>
<path d="M86.3255 19.1433C87.3963 19.1433 88.2644 18.2752 88.2644 17.2044C88.2644 16.1337 87.3963 15.2656 86.3255 15.2656C85.2548 15.2656 84.3867 16.1337 84.3867 17.2044C84.3867 18.2752 85.2548 19.1433 86.3255 19.1433Z" fill="white"/>
<path d="M78.7982 15.3796C79.869 15.3796 80.737 14.5115 80.737 13.4408C80.737 12.37 79.869 11.502 78.7982 11.502C77.7274 11.502 76.8594 12.37 76.8594 13.4408C76.8594 14.5115 77.7274 15.3796 78.7982 15.3796Z" fill="white"/>
<path d="M82.5638 15.3796C83.6346 15.3796 84.5026 14.5115 84.5026 13.4408C84.5026 12.37 83.6346 11.502 82.5638 11.502C81.493 11.502 80.625 12.37 80.625 13.4408C80.625 14.5115 81.493 15.3796 82.5638 15.3796Z" fill="white"/>
<path d="M86.3255 15.3796C87.3963 15.3796 88.2644 14.5115 88.2644 13.4408C88.2644 12.37 87.3963 11.502 86.3255 11.502C85.2548 11.502 84.3867 12.37 84.3867 13.4408C84.3867 14.5115 85.2548 15.3796 86.3255 15.3796Z" fill="white"/>
<path d="M9.6771 80.7351C10.7479 80.7351 11.6159 79.867 11.6159 78.7962C11.6159 77.7255 10.7479 76.8574 9.6771 76.8574C8.60632 76.8574 7.73828 77.7255 7.73828 78.7962C7.73828 79.867 8.60632 80.7351 9.6771 80.7351Z" fill="white"/>
<path d="M13.4388 80.7351C14.5096 80.7351 15.3776 79.867 15.3776 78.7962C15.3776 77.7255 14.5096 76.8574 13.4388 76.8574C12.368 76.8574 11.5 77.7255 11.5 78.7962C11.5 79.867 12.368 80.7351 13.4388 80.7351Z" fill="white"/>
<path d="M17.2044 80.7351C18.2752 80.7351 19.1433 79.867 19.1433 78.7962C19.1433 77.7255 18.2752 76.8574 17.2044 76.8574C16.1337 76.8574 15.2656 77.7255 15.2656 78.7962C15.2656 79.867 16.1337 80.7351 17.2044 80.7351Z" fill="white"/>
<path d="M9.6771 88.2604C10.7479 88.2604 11.6159 87.3924 11.6159 86.3216C11.6159 85.2509 10.7479 84.3828 9.6771 84.3828C8.60632 84.3828 7.73828 85.2509 7.73828 86.3216C7.73828 87.3924 8.60632 88.2604 9.6771 88.2604Z" fill="white"/>
<path d="M13.4388 88.2604C14.5096 88.2604 15.3776 87.3924 15.3776 86.3216C15.3776 85.2509 14.5096 84.3828 13.4388 84.3828C12.368 84.3828 11.5 85.2509 11.5 86.3216C11.5 87.3924 12.368 88.2604 13.4388 88.2604Z" fill="white"/>
<path d="M17.2044 88.2604C18.2752 88.2604 19.1433 87.3924 19.1433 86.3216C19.1433 85.2509 18.2752 84.3828 17.2044 84.3828C16.1337 84.3828 15.2656 85.2509 15.2656 86.3216C15.2656 87.3924 16.1337 88.2604 17.2044 88.2604Z" fill="white"/>
<path d="M9.6771 84.4987C10.7479 84.4987 11.6159 83.6307 11.6159 82.5599C11.6159 81.4891 10.7479 80.6211 9.6771 80.6211C8.60632 80.6211 7.73828 81.4891 7.73828 82.5599C7.73828 83.6307 8.60632 84.4987 9.6771 84.4987Z" fill="white"/>
<path d="M13.4388 84.4987C14.5096 84.4987 15.3776 83.6307 15.3776 82.5599C15.3776 81.4891 14.5096 80.6211 13.4388 80.6211C12.368 80.6211 11.5 81.4891 11.5 82.5599C11.5 83.6307 12.368 84.4987 13.4388 84.4987Z" fill="white"/>
<path d="M17.2044 84.4987C18.2752 84.4987 19.1433 83.6307 19.1433 82.5599C19.1433 81.4891 18.2752 80.6211 17.2044 80.6211C16.1337 80.6211 15.2656 81.4891 15.2656 82.5599C15.2656 83.6307 16.1337 84.4987 17.2044 84.4987Z" fill="white"/>
</svg>
